<svg width="904" height="1299" viewBox="0 0 904 1299" fill="none" xmlns="http://www.w3.org/2000/svg">
<path d="M374.348 1194.01C398.882 1129.32 410.055 993.877 368.931 929.866C317.526 849.852 235.746 834.531 214.717 791.97C193.688 749.41 170.322 531.5 121.254 563.846C81.922 570.656 3.72491 574.061 5.59416 533.203C-4.53098 501.992 4.42576 445.699 121.254 470.213C139.557 459.431 155.602 418.458 73.3546 340.828C-8.89267 263.197 8.70949 157.534 27.7915 114.406C39.8638 95.9953 63.541 85.883 61.6718 192.717C81.5326 229.602 126.161 265.579 145.788 114.406C146.178 72.4131 153.733 -8.5076 180.837 3.74983C214.717 19.0716 220.559 51.418 193.688 156.968C166.817 262.518 145.788 235.279 145.788 274.435C153.577 313.591 181.538 368.409 231.073 274.435C238.862 223.93 260.748 126.324 285.983 139.944C317.526 156.968 340.892 177.397 285.983 274.435C231.073 371.473 193.688 376.581 193.688 470.213C206.539 495.75 247.681 509.821 259.112 451.487C274.551 411.081 307.012 420.843 307.012 488.94C297.917 563.846 261.449 677.909 283.647 735.791C303.508 771.542 296.965 818.188 354.912 780.054C335.829 748.843 307.479 681.654 346.733 662.587C362.311 665.424 398.605 692.89 419.167 780.054C427.407 798.52 430.359 832.22 439.609 881.875C452.922 958.522 464.247 1049.3 462.655 1121.75C462.649 1121.92 462.645 1122.08 462.644 1122.24C461.922 1153.91 441.683 1235.16 439.609 1242.04C437.535 1248.93 433.112 1242.04 433.112 1242.04L374.348 1194.01Z" fill="#8EC744"/>
<path d="M474.235 1276.13C513.097 1253.76 583.147 1160.96 599.28 1119.04L666.42 996.471C687.449 873.896 655.905 788.775 619.688 710.464C590.715 647.815 607.616 624.208 619.688 620.236C640.25 588.911 659.41 654.852 666.42 691.737C695.627 691.737 655.905 596.402 613.847 530.008C571.789 463.613 575.293 424.457 583.471 417.648C591.649 410.838 604.501 395.516 627.866 424.457C646.558 447.61 654.347 474.963 655.905 485.745C668.055 412.2 607.227 270.105 575.293 208.25C544.451 157.858 553.096 91.918 561.274 65.2468C587.444 28.4759 607.227 49.9256 613.847 65.2468C620.857 143.558 613.847 179.875 627.866 189.522C641.885 220.846 696.016 99.2952 721.329 41.4129C774.603 0.554789 794.152 40.2779 797.268 65.2468C803.81 117.001 714.319 165.69 689.785 208.25C686.047 442.503 715.488 478.367 730.675 467.018C799.838 378.492 836.6 401.759 846.336 424.457C856.85 472.125 807.782 485.745 772.734 530.008C744.695 565.418 733.012 652.582 730.675 691.737C763.387 821.121 814.403 751.322 835.821 700.249C861.991 574.951 888.004 578.81 897.74 596.402C923.442 744.512 811.287 788.775 742.358 896.028C687.215 981.83 705.362 998.741 721.329 996.471C796.099 918.84 835.821 941.993 826.475 986.256C709.646 1166.71 564.148 1277.91 500.671 1295.5L474.235 1276.13Z" fill="#8EC744"/>
<path d="M439.609 1242.04C441.683 1235.16 461.922 1153.91 462.644 1122.24L462.655 1121.75C463.454 1100.24 511.197 997.611 468.061 926.671C458.551 911.031 445.574 897.891 439.609 881.875C432.83 842.843 425.535 807.474 419.167 780.054C421.671 766.434 440.023 716.023 468.061 756.882C485.112 830.086 519.215 975.361 519.215 972.637C519.215 969.232 590.48 1006.69 548.422 821.121C536.739 800.125 519.215 756.429 457.543 710.464C411.733 632.153 454.959 530.008 411.733 530.008C359.939 493.689 326.921 431.267 328.785 395.516C330.648 359.766 347.744 315.503 401.218 424.457C419.911 416.513 440.706 382.578 374.348 310.395C348.645 293.371 303.55 253.875 328.785 232.084C337.658 206.548 366.67 182.373 411.733 289.966C429.647 282.588 446.08 270.899 424.584 208.25C397.713 129.939 511.538 155.475 468.061 289.966C458.631 344.444 447.716 447.61 479.493 424.457C491.955 406.298 515.243 358.063 508.701 310.395C500.523 250.811 577.629 286.561 548.422 376.79C543.916 428.997 468.061 569.615 468.061 596.402C468.061 623.188 491.428 647.927 508.701 632.153C525.973 616.379 519.215 560.65 548.422 560.65C570.62 560.65 580.199 586.528 548.422 710.464C575.293 748.484 628.801 844.954 627.866 926.671C627.177 986.868 622.431 1058.89 599.28 1119.04C583.147 1160.96 513.097 1253.76 474.235 1276.13L439.609 1242.04Z" fill="#5A8F47"/>
<path d="M419.167 780.054C398.605 692.89 362.311 665.424 346.733 662.587C307.479 681.654 335.829 748.843 354.912 780.054C296.965 818.188 303.508 771.542 283.647 735.791C261.449 677.909 297.917 563.846 307.012 488.94C307.012 420.843 274.551 411.081 259.112 451.487C247.681 509.821 206.539 495.75 193.688 470.213C193.688 376.581 231.073 371.473 285.983 274.435C340.892 177.397 317.526 156.968 285.983 139.944C260.748 126.324 238.862 223.93 231.073 274.435C181.538 368.409 153.577 313.591 145.788 274.435C145.788 235.279 166.817 262.518 193.688 156.968C220.559 51.418 214.717 19.0716 180.837 3.74983C153.733 -8.5076 146.178 72.4131 145.788 114.406C126.161 265.579 81.5326 229.602 61.6718 192.717C63.541 85.883 39.8638 95.9953 27.7915 114.406C8.70949 157.534 -8.89267 263.197 73.3546 340.828C155.602 418.458 139.557 459.431 121.254 470.213C4.42576 445.699 -4.53098 501.992 5.59416 533.203C3.72491 574.061 81.922 570.656 121.254 563.846C170.322 531.5 193.688 749.41 214.717 791.97C235.746 834.531 317.526 849.852 368.931 929.866C410.055 993.877 398.882 1129.32 374.348 1194.01L433.112 1242.04C433.112 1242.04 437.535 1248.93 439.609 1242.04M419.167 780.054C421.671 766.434 440.023 716.023 468.061 756.882C485.112 830.086 519.215 975.361 519.215 972.637C519.215 969.232 590.48 1006.69 548.422 821.121C536.739 800.125 519.215 756.429 457.543 710.464C411.733 632.153 454.959 530.008 411.733 530.008C359.939 493.689 326.921 431.267 328.785 395.516C330.648 359.766 347.744 315.503 401.218 424.457C419.911 416.513 440.706 382.578 374.348 310.395C348.645 293.371 303.55 253.875 328.785 232.084C337.658 206.548 366.67 182.373 411.733 289.966C429.647 282.588 446.08 270.899 424.584 208.25C397.713 129.939 511.538 155.475 468.061 289.966C458.631 344.444 447.716 447.61 479.493 424.457C491.955 406.298 515.243 358.063 508.701 310.395C500.523 250.811 577.629 286.561 548.422 376.79C543.916 428.997 468.061 569.615 468.061 596.402C468.061 623.188 491.428 647.927 508.701 632.153C525.973 616.379 519.215 560.65 548.422 560.65C570.62 560.65 580.199 586.528 548.422 710.464C575.293 748.484 628.801 844.954 627.866 926.671C627.177 986.868 622.431 1058.89 599.28 1119.04M419.167 780.054C427.407 798.52 430.359 832.22 439.609 881.875M419.167 780.054C425.535 807.474 432.83 842.843 439.609 881.875M474.235 1276.13L439.609 1242.04M474.235 1276.13L500.671 1295.5C564.148 1277.91 709.646 1166.71 826.475 986.256C835.821 941.993 796.099 918.84 721.329 996.471C705.362 998.741 687.215 981.83 742.358 896.028C811.287 788.775 923.442 744.512 897.74 596.402C888.004 578.81 861.991 574.951 835.821 700.249C814.403 751.322 763.387 821.121 730.675 691.737C733.012 652.582 744.695 565.418 772.734 530.008C807.782 485.745 856.85 472.125 846.336 424.457C836.6 401.759 799.838 378.492 730.675 467.018C715.488 478.367 686.047 442.503 689.785 208.25C714.319 165.69 803.81 117.001 797.268 65.2468C794.152 40.2779 774.603 0.554789 721.329 41.4129C696.016 99.2952 641.885 220.846 627.866 189.522C613.847 179.875 620.857 143.558 613.847 65.2468C607.227 49.9256 587.444 28.4759 561.274 65.2468C553.096 91.918 544.451 157.858 575.293 208.25C607.227 270.105 668.055 412.2 655.905 485.745C654.347 474.963 646.558 447.61 627.866 424.457C604.501 395.516 591.649 410.838 583.471 417.648C575.293 424.457 571.789 463.613 613.847 530.008C655.905 596.402 695.627 691.737 666.42 691.737C659.41 654.852 640.25 588.911 619.688 620.236C607.616 624.208 590.715 647.815 619.688 710.464C655.905 788.775 687.449 873.896 666.42 996.471L599.28 1119.04M474.235 1276.13C513.097 1253.76 583.147 1160.96 599.28 1119.04M439.609 1242.04C441.683 1235.16 461.922 1153.91 462.644 1122.24M462.644 1122.24C462.645 1122.08 462.649 1121.92 462.655 1121.75M462.644 1122.24C462.648 1122.08 462.652 1121.91 462.655 1121.75M462.644 1122.24L462.655 1121.75M439.609 881.875C452.922 958.522 464.247 1049.3 462.655 1121.75M439.609 881.875C445.574 897.891 458.551 911.031 468.061 926.671C511.197 997.611 463.454 1100.24 462.655 1121.75" stroke="black" stroke-width="5"/>
</svg>
