<svg width="705" height="1439" viewBox="0 0 705 1439" fill="none" xmlns="http://www.w3.org/2000/svg">
<path d="M324.233 1436.36C366.975 1440.72 443.512 1340.89 443.512 1330.44C443.512 1317.39 503.152 1066.77 597.084 1032.83C691.016 998.894 710.399 941.46 699.962 881.416C689.525 821.371 628.395 881.416 597.084 944.07C562.294 986.711 521.044 985.84 634.359 641.238C664.179 605.56 716.96 522.194 689.525 474.158C662.091 426.123 641.317 499.394 634.359 542.035C614.479 607.3 580.683 669.433 604.539 395.84C616.467 355.811 641.814 268.964 647.778 241.813C655.233 207.875 632.868 158.273 614.976 200.043C597.084 241.813 594.102 346.237 579.192 346.237C564.282 346.237 550.863 147.83 568.755 79.9535C586.647 12.0773 525.517 -21.8608 518.062 22.5198C510.607 66.9004 512.098 163.495 525.517 333.185C538.936 502.876 477.805 406.283 483.769 333.185C489.733 260.088 455.44 236.592 443.512 275.752C431.584 314.911 501.661 510.708 492.715 526.371C506.134 595.988 531.481 749.841 525.517 808.319C518.062 881.416 483.769 829.204 483.769 808.319C483.769 787.434 485.26 669.956 464.386 690.841C443.512 711.726 473.332 891.859 473.332 917.965C473.332 944.07 464.386 1124.2 400.273 1124.2C389.837 1123.33 378.505 1073.56 416.674 881.416C422.14 853.575 406.244 756.149 400.277 719.581L400.273 719.557C394.31 683.009 464.982 581.716 443.512 542.035C416.674 492.433 361.508 364.513 380.891 296.637C400.273 228.76 440.53 124.333 428.602 79.9535C416.674 35.5742 370.454 90.3986 361.508 218.318C357.035 253.126 355.544 241.813 324.233 111.282C292.922 -19.2489 242.229 14.6892 267.575 132.167C292.922 249.645 375.821 512.274 361.508 581.194C343.616 667.345 398.782 915.353 361.508 944.07C346.598 950.162 312.902 886.115 297.395 581.194C273.539 498.524 225.231 335.794 222.846 346.237C219.864 359.291 246.702 218.318 234.774 218.318C234.774 179.158 190.635 145.064 191.535 223.539C191.535 223.539 193.313 235.678 193.025 237.442C196.776 273.746 201.68 331.595 197.499 346.237C186.565 365.486 168.112 317.522 124.441 179.158C93.129 79.9535 8.74003 25.1317 124.441 390.619C140.841 427.168 215.69 460.584 234.774 562.92C258.629 690.841 210.918 654.292 267.575 808.319C280.497 832.684 302.463 881.416 286.958 881.416C267.575 881.416 240.736 891.859 182.588 659.513C170.163 618.613 144.419 561.354 140.841 659.513C155.751 708.245 181.097 809.363 163.206 823.982C146.805 832.684 99.093 821.372 39.4535 706.504C18.0826 691.711 -16.6077 687.708 15.5976 790.044C36.4715 823.983 99.093 897.08 182.588 917.965C220.857 942.331 297.395 1013.51 297.395 1103.32C297.395 1215.58 300.378 1434.17 324.233 1436.36Z" fill="#FED762"/>
<path d="M400.273 719.557C394.31 683.009 464.982 581.716 443.512 542.035C416.674 492.433 361.508 364.513 380.891 296.637C400.273 228.76 440.53 124.333 428.602 79.9535C416.674 35.5742 370.454 90.3986 361.508 218.318C357.035 253.126 355.544 241.813 324.233 111.282C292.922 -19.2489 242.229 14.6892 267.575 132.167C292.922 249.645 375.821 512.274 361.508 581.194C343.616 667.345 398.782 915.353 361.508 944.07C346.598 950.162 312.902 886.115 297.395 581.194C273.539 498.524 225.231 335.794 222.846 346.237C219.864 359.291 246.702 218.318 234.774 218.318C234.774 179.158 190.635 145.064 191.535 223.539M400.273 719.557L400.277 719.581M400.273 719.557C400.275 719.565 400.276 719.573 400.277 719.581M191.535 223.539C191.535 223.539 193.313 235.678 193.025 237.442C196.776 273.746 201.68 331.595 197.499 346.237M191.535 223.539C195.211 256.554 202.27 329.528 197.499 346.237M197.499 346.237C186.565 365.486 168.112 317.522 124.441 179.158C93.129 79.9535 8.74003 25.1317 124.441 390.619C140.841 427.168 215.69 460.584 234.774 562.92C258.629 690.841 210.918 654.292 267.575 808.319C280.497 832.684 302.463 881.416 286.958 881.416C267.575 881.416 240.736 891.859 182.588 659.513C170.163 618.613 144.419 561.354 140.841 659.513C155.751 708.245 181.097 809.363 163.206 823.982C146.805 832.684 99.093 821.372 39.4535 706.504C18.0826 691.711 -16.6077 687.708 15.5976 790.044C36.4715 823.983 99.093 897.08 182.588 917.965C220.857 942.331 297.395 1013.51 297.395 1103.32C297.395 1215.58 300.378 1434.17 324.233 1436.36C366.975 1440.72 443.512 1340.89 443.512 1330.44C443.512 1317.39 503.152 1066.77 597.084 1032.83C691.016 998.894 710.399 941.46 699.962 881.416C689.525 821.371 628.395 881.416 597.084 944.07C562.294 986.711 521.044 985.84 634.359 641.238C664.179 605.56 716.96 522.194 689.525 474.158C662.091 426.123 641.317 499.394 634.359 542.035C614.479 607.3 580.683 669.433 604.539 395.84C616.467 355.811 641.814 268.964 647.778 241.813C655.233 207.875 632.868 158.273 614.976 200.043C597.084 241.813 594.102 346.237 579.192 346.237C564.282 346.237 550.863 147.83 568.755 79.9535C586.647 12.0773 525.517 -21.8608 518.062 22.5198C510.607 66.9004 512.098 163.495 525.517 333.185C538.936 502.876 477.805 406.283 483.769 333.185C489.733 260.088 455.44 236.592 443.512 275.752C431.584 314.911 501.661 510.708 492.715 526.371C506.134 595.988 531.481 749.841 525.517 808.319C518.062 881.416 483.769 829.204 483.769 808.319C483.769 787.434 485.26 669.956 464.386 690.841C443.512 711.726 473.332 891.859 473.332 917.965C473.332 944.07 464.386 1124.2 400.273 1124.2C389.837 1123.33 378.505 1073.56 416.674 881.416C422.14 853.575 406.244 756.149 400.277 719.581" stroke="black" stroke-width="5"/>
</svg>
