<svg width="3467" height="2634" viewBox="0 0 3467 2634" fill="none" xmlns="http://www.w3.org/2000/svg">
<path d="M307.5 411.5C3.03337 1034.87 -189 2346.47 1396.5 2536.5C2898.65 2716.54 3325.93 1957.38 3342 1555.5C3353.61 1267.04 3460.43 806 3086 232C2966.76 49.2085 2377 170.5 2377 170.5C2377 170.5 2093.07 215.511 1979.5 170.5C1837.54 114.236 1466.9 125.746 1143.5 170.5C806.934 217.077 540 -102 307.5 411.5Z" fill="#9FE4E9"/>
<path fill-rule="evenodd" clip-rule="evenodd" d="M469.712 5C-57.0774 773.043 -575.473 2371.82 1565.26 2622.6C2275.97 2660.11 3512.16 2577.74 3460.43 1118.75C3418.87 694.628 3133.3 5 3019.73 5H469.712ZM1396.5 2536.5C-189 2346.47 3.03337 1034.87 307.5 411.5C540 -102 806.934 217.077 1143.5 170.5C1466.9 125.746 1837.54 114.236 1979.5 170.5C2093.07 215.511 2377 170.5 2377 170.5C2377 170.5 2966.76 49.2085 3086 232C3460.43 806 3353.61 1267.04 3342 1555.5C3325.93 1957.38 2898.65 2716.54 1396.5 2536.5Z" fill="#E9FFFD"/>
<path d="M469.712 5C-57.0774 773.043 -575.473 2371.82 1565.26 2622.6C2275.97 2660.11 3512.16 2577.74 3460.43 1118.75C3418.87 694.628 3133.3 5 3019.73 5M469.712 5C1272.4 5 2906.16 5 3019.73 5M469.712 5H3019.73M307.5 411.5C3.03337 1034.87 -189 2346.47 1396.5 2536.5C2898.65 2716.54 3325.93 1957.38 3342 1555.5C3353.61 1267.04 3460.43 806 3086 232C2966.76 49.2085 2377 170.5 2377 170.5C2377 170.5 2093.07 215.511 1979.5 170.5C1837.54 114.236 1466.9 125.746 1143.5 170.5C806.934 217.077 540 -102 307.5 411.5Z" stroke="#DFF0FF" stroke-width="10"/>
</svg>
