<svg width="596" height="888" viewBox="0 0 596 888" fill="none" xmlns="http://www.w3.org/2000/svg">
<path d="M321.864 885.372C285.778 887.974 257.665 850.36 257.665 844.115C257.665 836.308 170.806 638.981 91.5001 618.685C12.1945 598.388 -4.17025 564.04 4.64149 528.131C13.4532 492.222 65.0649 528.131 91.5001 565.601C120.873 591.102 155.7 590.582 60.0297 384.494C34.8533 363.157 -9.709 313.3 13.4533 284.573C36.6156 255.845 54.1552 299.665 60.0297 325.166C76.8139 364.197 105.347 401.356 85.206 237.735C75.1355 213.795 53.7355 161.857 48.7002 145.62C42.4061 125.323 61.2884 95.6589 76.3943 120.639C91.5001 145.62 94.0178 208.07 106.606 208.07C119.194 208.07 130.524 89.4131 115.418 48.82C100.312 8.22691 151.924 -12.0696 158.218 14.472C164.512 41.0136 163.253 98.7814 151.924 200.264C140.594 301.747 192.206 243.98 187.17 200.264C182.135 156.549 211.088 142.497 221.159 165.916C231.229 189.335 172.065 306.431 179.618 315.798C168.288 357.432 146.888 449.443 151.924 484.416C158.218 528.131 187.17 496.906 187.17 484.416C187.17 471.926 185.912 401.668 203.535 414.158C221.159 426.649 195.982 534.377 195.982 549.989C195.982 565.602 203.535 673.33 257.665 673.33C266.476 672.809 276.043 643.041 243.818 528.131C239.203 511.481 252.624 453.216 257.661 431.347L257.665 431.332C262.699 409.475 203.032 348.897 221.159 325.166C243.818 295.502 290.394 218.999 274.029 178.406C257.665 137.813 223.676 75.3609 233.747 48.82C243.818 22.2791 282.841 55.0666 290.394 131.568C294.17 152.385 295.429 145.62 321.864 67.556C348.3 -10.5076 391.099 9.78895 369.7 80.0462C348.3 150.303 278.309 307.367 290.394 348.585C305.5 400.107 258.923 548.427 290.394 565.601C302.982 569.245 331.431 530.942 344.523 348.585C364.664 299.144 405.45 201.824 407.464 208.07C409.982 215.877 387.323 131.568 397.394 131.568C397.394 108.149 434.66 87.7592 433.9 134.691C433.9 134.691 432.398 141.95 432.641 143.005C429.474 164.717 425.334 199.313 428.864 208.07C438.096 219.582 453.675 190.897 490.546 108.149C516.982 48.82 588.231 16.034 490.546 234.612C476.7 256.47 413.506 276.454 397.394 337.656C377.253 414.158 417.535 392.301 369.7 484.416C358.79 498.987 340.244 528.131 353.336 528.131C369.7 528.131 392.36 534.376 441.453 395.423C451.943 370.963 473.679 336.719 476.7 395.423C464.112 424.567 442.712 485.04 457.818 493.783C471.665 498.988 511.947 492.222 562.3 423.526C580.343 414.679 609.631 412.285 582.441 473.487C564.817 493.783 511.947 537.499 441.453 549.989C409.143 564.561 344.523 607.132 344.523 660.839C344.523 727.974 342.005 884.059 321.864 885.372Z" fill="#AC8FA5"/>
<path d="M433.9 134.691C434.66 87.7592 397.394 108.149 397.394 131.568C387.323 131.568 409.982 215.877 407.464 208.07C405.45 201.824 364.664 299.144 344.523 348.585C331.431 530.942 302.982 569.245 290.394 565.601C258.923 548.427 305.5 400.107 290.394 348.585C278.309 307.367 348.3 150.303 369.7 80.0462C391.099 9.78895 348.3 -10.5076 321.864 67.556C295.429 145.62 294.17 152.385 290.394 131.568C282.841 55.0666 243.818 22.2791 233.747 48.82C223.676 75.3609 257.665 137.813 274.029 178.406C290.394 218.999 243.818 295.502 221.159 325.166C203.032 348.897 262.699 409.475 257.665 431.332L257.661 431.347C252.624 453.216 239.203 511.481 243.818 528.131C276.043 643.041 266.476 672.809 257.665 673.33C203.535 673.33 195.982 565.602 195.982 549.989C195.982 534.377 221.159 426.649 203.535 414.158C185.912 401.668 187.17 471.926 187.17 484.416C187.17 496.906 158.218 528.131 151.924 484.416C146.888 449.443 168.288 357.432 179.618 315.798C172.065 306.431 231.229 189.335 221.159 165.916C211.088 142.497 182.135 156.549 187.17 200.264C192.206 243.98 140.594 301.747 151.924 200.264C163.253 98.7814 164.512 41.0136 158.218 14.472C151.924 -12.0696 100.312 8.22691 115.418 48.82C130.524 89.4131 119.194 208.07 106.606 208.07C94.0178 208.07 91.5001 145.62 76.3943 120.639C61.2884 95.6589 42.4061 125.323 48.7002 145.62C53.7355 161.857 75.1355 213.795 85.206 237.735C105.347 401.356 76.8139 364.197 60.0297 325.166C54.1552 299.665 36.6156 255.845 13.4533 284.573C-9.709 313.3 34.8533 363.157 60.0297 384.494C155.7 590.582 120.873 591.102 91.5001 565.601C65.0649 528.131 13.4532 492.222 4.64149 528.131C-4.17025 564.04 12.1945 598.388 91.5001 618.685C170.806 638.981 257.665 836.308 257.665 844.115C257.665 850.36 285.778 887.974 321.864 885.372C342.005 884.059 344.523 727.974 344.523 660.839C344.523 607.132 409.143 564.561 441.453 549.989C511.947 537.499 564.817 493.783 582.441 473.487C609.631 412.285 580.343 414.679 562.3 423.526C511.947 492.222 471.665 498.988 457.818 493.783C442.712 485.04 464.112 424.567 476.7 395.423C473.679 336.719 451.943 370.963 441.453 395.423C392.36 534.376 369.7 528.131 353.336 528.131C340.244 528.131 358.79 498.987 369.7 484.416C417.535 392.301 377.253 414.158 397.394 337.656C413.506 276.454 476.7 256.47 490.546 234.612C588.231 16.034 516.982 48.82 490.546 108.149C453.675 190.897 438.096 219.582 428.864 208.07M433.9 134.691C433.9 134.691 432.398 141.95 432.641 143.005C429.474 164.717 425.334 199.313 428.864 208.07M433.9 134.691C430.796 154.435 424.836 198.077 428.864 208.07" stroke="black" stroke-width="5"/>
</svg>
