<svg width="505" height="755" viewBox="0 0 505 755" fill="none" xmlns="http://www.w3.org/2000/svg">
<path d="M225.918 729.332C256.448 731.713 306.858 757.389 306.858 751.673C306.858 744.529 360.107 585.014 427.202 566.438C494.296 547.862 508.141 516.427 500.686 483.562C493.231 450.698 449.567 483.562 427.202 517.856C402.352 541.194 372.887 540.718 453.827 352.104C475.127 332.576 512.827 286.947 493.231 260.655C473.636 234.364 458.797 274.468 453.827 297.807C439.627 333.529 415.487 367.537 432.527 217.789C441.047 195.879 459.152 148.345 463.412 133.484C468.737 114.909 452.762 87.7599 439.982 110.622C427.202 133.484 425.072 190.639 414.422 190.639C403.772 190.639 394.187 82.0437 406.967 44.8926C419.747 7.74141 376.082 -10.8342 370.757 13.457C365.432 37.7481 366.497 90.6178 376.082 183.496C385.667 276.374 342.003 223.505 346.263 183.496C350.523 143.487 326.028 130.627 317.508 152.06C308.988 173.493 359.042 280.661 352.653 289.234C362.237 327.337 380.342 411.547 376.082 443.554C370.757 483.562 346.263 454.985 346.263 443.554C346.263 432.123 347.328 367.823 332.418 379.254C317.508 390.685 338.808 489.279 338.808 503.567C338.808 517.856 332.418 616.449 286.623 616.449C279.168 615.973 271.074 588.729 298.338 483.562C302.242 468.324 290.887 414.999 286.626 394.985L286.623 394.971C282.363 374.967 332.844 319.525 317.508 297.807C298.338 270.658 258.933 200.642 272.778 163.491C286.623 126.34 315.378 69.183 306.858 44.8926C298.338 20.6021 265.323 50.6095 258.933 120.624C255.738 139.676 254.674 133.484 232.308 62.0399C209.943 -9.40459 173.734 9.17099 191.839 73.4711C209.943 137.771 269.157 281.518 258.933 319.24C246.153 366.394 285.558 502.138 258.933 517.856C248.283 521.19 224.214 486.135 213.138 319.24C196.099 273.992 161.593 184.923 159.889 190.639C157.759 197.785 176.929 120.624 168.409 120.624C168.409 99.1911 136.881 80.5301 137.524 123.482C137.524 123.482 138.794 130.126 138.589 131.092C141.268 150.962 144.77 182.625 141.784 190.639C133.974 201.175 120.793 174.922 89.5995 99.1911C67.2341 44.8926 6.95619 14.8866 89.5995 214.931C101.314 234.936 154.777 253.225 168.409 309.238C185.448 379.254 151.369 359.249 191.839 443.554C201.068 456.89 216.758 483.562 205.683 483.562C191.839 483.562 172.668 489.278 131.134 362.107C122.259 339.721 103.87 308.381 101.314 362.107C111.964 388.78 130.069 444.125 117.289 452.127C105.574 456.89 71.494 450.698 28.8943 387.827C13.6295 379.73 -11.1493 377.539 11.8545 433.551C26.7644 452.127 71.494 492.136 131.134 503.567C158.469 516.903 213.138 555.865 213.138 605.018C213.138 666.461 208.879 728.13 225.918 729.332Z" fill="#FED762"/>
<path d="M286.623 394.971C282.363 374.967 332.844 319.525 317.508 297.807C298.338 270.658 258.933 200.642 272.778 163.491C286.623 126.34 315.378 69.183 306.858 44.8926C298.338 20.6021 265.323 50.6095 258.933 120.624C255.738 139.676 254.674 133.484 232.308 62.0399C209.943 -9.40459 173.734 9.17099 191.839 73.4711C209.943 137.771 269.157 281.518 258.933 319.24C246.153 366.394 285.558 502.138 258.933 517.856C248.283 521.19 224.214 486.135 213.138 319.24C196.099 273.992 161.593 184.923 159.889 190.639C157.759 197.785 176.929 120.624 168.409 120.624C168.409 99.1911 136.881 80.5301 137.524 123.482M286.623 394.971L286.626 394.985M286.623 394.971C286.624 394.976 286.625 394.98 286.626 394.985M137.524 123.482C137.524 123.482 138.794 130.126 138.589 131.092C141.268 150.962 144.77 182.625 141.784 190.639M137.524 123.482C140.15 141.553 145.192 181.494 141.784 190.639M141.784 190.639C133.974 201.175 120.793 174.922 89.5995 99.1911C67.2341 44.8926 6.95619 14.8866 89.5995 214.931C101.314 234.936 154.777 253.225 168.409 309.238C185.448 379.254 151.369 359.249 191.839 443.554C201.068 456.89 216.758 483.562 205.683 483.562C191.839 483.562 172.668 489.278 131.134 362.107C122.259 339.721 103.87 308.381 101.314 362.107C111.964 388.78 130.069 444.125 117.289 452.127C105.574 456.89 71.494 450.698 28.8943 387.827C13.6295 379.73 -11.1493 377.539 11.8545 433.551C26.7644 452.127 71.494 492.136 131.134 503.567C158.469 516.903 213.138 555.865 213.138 605.018C213.138 666.461 208.879 728.13 225.918 729.332C256.448 731.713 306.858 757.389 306.858 751.673C306.858 744.529 360.107 585.014 427.202 566.438C494.296 547.862 508.141 516.427 500.686 483.562C493.231 450.698 449.567 483.562 427.202 517.856C402.352 541.194 372.887 540.718 453.827 352.104C475.127 332.576 512.827 286.947 493.231 260.655C473.636 234.364 458.797 274.468 453.827 297.807C439.627 333.529 415.487 367.537 432.527 217.789C441.047 195.879 459.152 148.345 463.412 133.484C468.737 114.909 452.762 87.7599 439.982 110.622C427.202 133.484 425.072 190.639 414.422 190.639C403.772 190.639 394.187 82.0437 406.967 44.8926C419.747 7.74141 376.082 -10.8342 370.757 13.457C365.432 37.7481 366.497 90.6178 376.082 183.496C385.667 276.374 342.003 223.505 346.263 183.496C350.523 143.487 326.028 130.627 317.508 152.06C308.988 173.493 359.042 280.661 352.653 289.234C362.237 327.337 380.342 411.547 376.082 443.554C370.757 483.562 346.263 454.985 346.263 443.554C346.263 432.123 347.328 367.823 332.418 379.254C317.508 390.685 338.808 489.279 338.808 503.567C338.808 517.856 332.418 616.449 286.623 616.449C279.168 615.973 271.074 588.729 298.338 483.562C302.242 468.324 290.887 414.999 286.626 394.985" stroke="black" stroke-width="5"/>
</svg>
