<svg width="1114" height="1015" viewBox="0 0 1114 1015" fill="none" xmlns="http://www.w3.org/2000/svg">
<path fill-rule="evenodd" clip-rule="evenodd" d="M621.489 310.923C624.073 296.43 626.931 282.644 630.019 270.867C627.743 280.387 624.66 294.477 621.489 310.923ZM567.347 528.297C567.159 526.802 566.989 525.216 566.842 523.549C566.991 525.111 567.159 526.693 567.347 528.297ZM631.537 625.246C623.268 622.107 610.031 613.358 597.399 597.343C606.362 608.488 617.609 618.432 631.537 625.246ZM634.473 635.583C645.948 672.061 670.048 713.996 681.941 732.283C678.642 732.195 675.315 732.062 671.963 731.881C675.938 732.294 679.447 732.632 682.336 732.888C682.235 732.73 682.135 732.571 682.035 732.413L681.952 732.283C655.381 690.37 640.716 654.934 634.473 635.583Z" fill="#71AC5C"/>
<path fill-rule="evenodd" clip-rule="evenodd" d="M413.712 372.615C405.515 378.281 392.903 387.379 378.513 398.457C387.761 391.195 399.736 382.243 413.712 372.615ZM436.61 643.551C438.997 651.756 441.424 658.492 443.701 663.673L442.613 663.079L443.714 663.703L443.702 663.674C441.091 657.139 438.733 650.419 436.61 643.551Z" fill="#71AC5C"/>
<path d="M525.52 530.129C528.616 568.805 545.87 660.764 590.114 719.197C598.39 721.192 607.946 723.03 617.811 724.677C637.107 727.897 657.584 730.385 671.963 731.881C675.315 732.062 678.642 732.195 681.941 732.283C670.048 713.996 645.948 672.061 634.473 635.583C633.098 631.324 632.132 627.844 631.537 625.246C623.268 622.107 610.031 613.358 597.399 597.343C578.249 573.533 569.523 544.244 567.347 528.297C567.159 526.802 566.989 525.216 566.842 523.549C560.315 455.069 590.74 426.477 607.143 420.71C608.381 386.592 615.112 343.994 621.489 310.923C624.073 296.43 626.931 282.644 630.019 270.867C589.926 278.99 559.807 291.523 549.76 296.775C524.65 387.056 519.746 465.215 525.436 529.499C525.463 529.709 525.492 529.919 525.52 530.129Z" fill="#71AC5C"/>
<path d="M359.006 419.736C351.7 443.771 343.077 483.673 341.706 526.118C341.032 557.601 344.443 583.404 348.367 600.16C349.195 603.558 350.109 606.921 351.111 610.24C359.308 615.626 414.814 647.304 442.613 663.079L443.701 663.673C441.424 658.492 438.997 651.756 436.61 643.551C405.763 543.747 424.56 412.417 438.858 356.038C430.942 361.024 423.417 365.983 416.373 370.791C415.478 371.402 414.591 372.01 413.712 372.615C405.515 378.281 392.903 387.379 378.513 398.457C370.624 404.652 364.719 409.617 361.247 412.723C360.473 415.069 359.726 417.406 359.006 419.736Z" fill="#71AC5C"/>
<path d="M202.712 625.153C222.678 613.305 268.482 584.842 291.974 565.779C291.64 565.06 291.307 564.097 290.994 562.878C288.359 553.391 288.717 537.74 290.37 521.363C291.341 511.268 292.992 499.346 295.587 485.436C296.669 479.546 297.754 474.222 298.724 469.837C272.455 454.67 218.001 426.872 189.736 417.311C191.784 417.7 191.878 418.206 194.001 418.678C167.001 407.872 118.669 394.261 100.05 411.852C88.8577 416.065 66.7373 443.522 67.7974 519.653C69.6407 567.018 86.0778 659.39 137.08 649.966C142.387 649.942 161.056 645.788 194.211 629.665L194.576 629.487C195.722 628.929 196.885 628.356 198.066 627.769C199.606 626.962 201.155 626.091 202.712 625.153Z" fill="#71AC5C"/>
<path d="M314.93 377.686C300.728 409.898 311.358 439.615 317.953 450.181L320.212 447.875C321.517 446.507 322.914 445.023 324.124 443.882C331.089 437.316 338.977 430.344 346.983 423.798C357.763 414.724 368.563 406.117 378.513 398.457C387.761 391.195 399.736 382.243 413.712 372.615C414.659 371.961 415.547 371.352 416.373 370.791C384.874 362.077 373.494 361.424 371.742 362.186C347.716 357.478 323.196 370.203 314.93 377.686Z" fill="#71AC5C"/>
<path d="M607.475 196.239C509.526 199.902 501.612 275.222 509.898 312.425C512.572 311.093 515.248 309.801 517.913 308.563C521.008 307.125 524.087 305.759 527.127 304.486C658.636 247.219 734.2 253.906 755.843 264.734C719.001 196.239 627.663 194.296 607.475 196.239Z" fill="#71AC5C"/>
<path d="M327.385 594.97C304.064 618.635 268.881 673.639 314.718 704.334C335.599 719.355 401.843 738.012 499.772 692.474L487.342 687.088C480.818 683.663 472.917 679.469 464.121 674.741C460.71 672.962 457.303 671.125 453.911 669.23C451.326 667.829 448.688 666.395 446.005 664.931L443.714 663.703L442.613 663.079C402.094 640.918 352.673 612.807 327.385 594.97Z" fill="#71AC5C"/>
<path d="M692.117 732.414L682.336 732.888C679.447 732.632 675.938 732.294 671.963 731.881C654.462 730.934 636.281 728.676 617.811 724.677C609.038 740.966 600.523 778.386 636.656 797.753C654.935 805.363 707.971 810.798 773.882 771.655C788.552 763.38 823.903 737.033 847.944 697.841C840.991 701.109 832.382 704.771 822.502 708.456C808.965 714.485 784.953 722.225 754.508 727.25C737.12 730.389 718.827 732.352 700.485 732.315C697.72 732.378 694.93 732.412 692.117 732.414Z" fill="#71AC5C"/>
<path d="M654.945 633.963C672.312 635.854 687.068 632.773 692.275 630.997C693.52 630.752 694.918 630.425 696.453 630.01C707.242 626.743 719.335 621.621 732.23 613.951C747.849 604.529 765.388 590.815 781.537 571.622C784.679 567.349 791.468 558.565 792.318 556.978L780.935 461.528C776.355 457.371 767.5 451.872 760.5 445.372C750.5 443.372 738.556 433.245 723.6 426.479C712.208 421.409 699.462 416.774 686.264 413.625C681.918 412.672 677.59 411.948 673.339 411.516C653.319 408.31 636.949 410.427 628.136 412.672C626.555 413.108 624.988 413.592 623.436 414.126L607.143 420.71C568.898 437.93 564.207 493.671 566.842 523.549C566.991 525.111 567.159 526.693 567.347 528.297C573.353 559.233 585.089 581.738 597.399 597.343C606.362 608.488 617.609 618.432 631.537 625.246L654.945 633.963Z" fill="#71AC5C"/>
<path d="M631.537 625.246C632.384 628.624 633.37 632.079 634.473 635.583C640.716 654.934 655.381 690.37 681.952 732.283C685.371 732.374 688.761 732.417 692.117 732.414L695.44 732.253C697.122 732.291 698.804 732.311 700.485 732.315C719.932 731.868 738.149 729.951 754.508 727.25C780.024 722.645 803.591 715.51 822.502 708.456L847.944 697.841C851.205 696.309 848.506 699.162 850.998 697.841C812.669 672.191 788.814 604.88 778.88 576.58C762.781 593.066 746.981 605.176 732.23 613.951C717.795 622.658 705 627.699 696.453 630.01C677.931 635.62 663.249 635.766 654.945 633.963L631.537 625.246Z" fill="#4D753E"/>
<path d="M305.164 463.372L298.724 469.837C297.552 475.293 296.51 480.49 295.587 485.436C293.597 496.273 291.616 509.024 290.37 521.363C288.267 543.236 289.362 556.53 290.994 562.878C291.284 563.922 291.61 564.891 291.974 565.779C294.091 567.699 299.01 571.849 302.874 574.145C303.191 574.334 303.501 574.51 303.802 574.671C305.354 576.555 303.232 574.357 302.874 574.145C310.692 582.42 339.083 602.516 351.111 610.24C350.198 607.385 349.269 604.011 348.367 600.16C342.566 576.368 340.908 550.813 341.706 526.118C342.37 495.098 346.998 458.563 359.006 419.736C359.771 417.219 360.521 414.877 361.247 412.723C356.565 416.146 351.753 419.897 346.983 423.798C339.245 430.311 331.519 437.065 324.124 443.882L320.212 447.875C319.401 448.725 318.625 449.531 317.953 450.181C313.677 454.313 307.709 460.749 305.164 463.372Z" fill="#4D753E"/>
<path d="M449.13 348.78C445.418 351.896 440.735 354.917 438.858 356.038C409.457 492.497 422.313 594.396 436.61 643.551C438.733 650.419 441.091 657.139 443.702 663.674C444.473 664.095 445.241 664.515 446.005 664.931L451.646 667.955C452.4 668.383 453.155 668.808 453.911 669.23C457.422 671.133 460.834 672.974 464.121 674.741C515.954 701.779 568.835 715.552 590.114 719.197C566.348 691.141 533.971 625.934 525.436 529.499C513.343 438.271 536.592 336.39 549.76 296.775C542.762 298.464 535.078 301.157 527.127 304.486C524.086 305.811 521.014 307.169 517.913 308.563L509.898 312.425C485.691 324.488 461.746 339.865 449.13 348.78Z" fill="#4D753E"/>
<path d="M641.672 268.178L630.019 270.867C627.743 280.387 624.66 294.477 621.489 310.923C614.251 351.514 609.158 397.648 607.143 420.71L623.436 414.126C624.605 413.672 626.185 413.169 628.136 412.672C646.582 407.585 666.908 409.007 686.264 413.625C699.06 416.433 712.009 421.236 723.6 426.479C737.976 432.877 752.256 439.699 760.5 445.372C757.568 378.448 768.929 300.647 776.007 269.977C769.224 267.877 762.487 266.144 755.843 264.734C705.009 253.945 659.652 262.011 641.672 268.178Z" fill="#4D753E"/>
<path d="M776.007 269.977C768.929 300.647 757.568 378.448 760.5 445.372C767.5 451.872 776.355 457.371 780.935 461.528L792.318 556.978C791.468 558.565 784.679 567.349 781.537 571.622C765.388 590.815 747.849 604.529 732.23 613.951C746.981 605.176 762.781 593.066 778.88 576.58C788.814 604.88 812.669 672.191 850.998 697.841C919.998 674.372 955.997 659.372 993.498 630.372C1033.5 599.439 1045.5 543.872 1043 540.872C1063.5 349.872 843.963 285.386 776.007 269.977Z" fill="#71AC5C"/>
<path d="M298.724 469.837L307.014 461.515M298.724 469.837C272.455 454.67 218.001 426.872 189.736 417.311C191.784 417.7 191.878 418.206 194.001 418.678C167.001 407.872 118.669 394.261 100.05 411.852C88.8577 416.065 66.7373 443.522 67.7974 519.653C69.6407 567.018 86.0778 659.39 137.08 649.966C142.387 649.942 161.056 645.788 194.211 629.665M298.724 469.837C297.552 475.293 296.51 480.49 295.587 485.436M298.724 469.837C297.754 474.222 296.669 479.546 295.587 485.436M298.724 469.837L305.164 463.372C307.709 460.749 313.677 454.313 317.953 450.181M291.974 565.779C268.482 584.842 222.678 613.305 202.712 625.153C201.155 626.091 199.606 626.962 198.066 627.769M291.974 565.779C291.61 564.891 291.284 563.922 290.994 562.878M291.974 565.779C294.091 567.699 299.01 571.849 302.874 574.145M291.974 565.779C296.064 569.747 300.487 572.735 302.874 574.145M291.974 565.779C291.64 565.06 291.307 564.097 290.994 562.878M198.066 627.769C196.774 628.445 195.489 629.077 194.211 629.665M198.066 627.769C196.885 628.356 195.722 628.929 194.576 629.487M198.066 627.769C197.056 628.316 195.886 628.896 194.576 629.487M194.211 629.665C194.332 629.606 194.454 629.547 194.576 629.487M194.211 629.665L194.576 629.487M361.247 412.723C360.473 415.069 359.726 417.406 359.006 419.736M361.247 412.723C360.521 414.877 359.771 417.219 359.006 419.736M361.247 412.723C364.719 409.617 370.624 404.652 378.513 398.457M361.247 412.723C356.565 416.146 351.753 419.897 346.983 423.798M351.111 610.24C339.083 602.516 310.692 582.42 302.874 574.145M351.111 610.24C350.109 606.921 349.195 603.558 348.367 600.16M351.111 610.24C350.198 607.385 349.269 604.011 348.367 600.16M351.111 610.24C359.308 615.626 414.814 647.304 442.613 663.079M302.874 574.145C303.232 574.357 305.354 576.555 303.802 574.671C303.501 574.51 303.191 574.334 302.874 574.145ZM317.953 450.181C311.358 439.615 300.728 409.898 314.93 377.686C323.196 370.203 347.716 357.478 371.742 362.186C373.494 361.424 384.874 362.077 416.373 370.791M317.953 450.181C318.625 449.531 319.401 448.725 320.212 447.875M317.953 450.181L320.212 447.875M324.124 443.882C331.089 437.316 338.977 430.344 346.983 423.798M324.124 443.882C331.519 437.065 339.245 430.311 346.983 423.798M324.124 443.882L320.212 447.875M324.124 443.882C322.914 445.023 321.517 446.507 320.212 447.875M438.858 356.038C440.735 354.917 445.418 351.896 449.13 348.78C461.746 339.865 485.691 324.488 509.898 312.425M438.858 356.038C409.457 492.497 422.313 594.396 436.61 643.551M438.858 356.038C424.56 412.417 405.763 543.747 436.61 643.551M438.858 356.038C430.942 361.024 423.417 365.983 416.373 370.791M443.714 663.703L446.005 664.931M443.714 663.703C443.352 663.498 442.985 663.29 442.613 663.079M443.714 663.703C443.71 663.694 443.706 663.684 443.702 663.674M443.714 663.703L442.613 663.079M443.714 663.703L443.702 663.674M443.714 663.703C443.71 663.693 443.705 663.683 443.701 663.673M359.006 419.736C351.7 443.771 343.077 483.673 341.706 526.118M359.006 419.736C346.998 458.563 342.37 495.098 341.706 526.118M341.706 526.118C341.032 557.601 344.443 583.404 348.367 600.16M341.706 526.118C340.908 550.813 342.566 576.368 348.367 600.16M436.61 643.551C438.733 650.419 441.091 657.139 443.702 663.674M436.61 643.551C438.997 651.756 441.424 658.492 443.701 663.673M549.76 296.775C559.807 291.523 589.926 278.99 630.019 270.867M549.76 296.775C524.65 387.056 519.746 465.215 525.436 529.499M549.76 296.775C536.592 336.39 513.343 438.271 525.436 529.499M549.76 296.775C542.762 298.464 535.078 301.157 527.127 304.486M590.114 719.197C545.87 660.764 528.616 568.805 525.52 530.129C525.492 529.919 525.463 529.709 525.436 529.499M590.114 719.197C568.835 715.552 515.954 701.779 464.121 674.741M590.114 719.197C566.348 691.141 533.971 625.934 525.436 529.499M590.114 719.197C598.39 721.192 607.946 723.03 617.811 724.677M416.373 370.791C415.547 371.352 414.659 371.961 413.712 372.615M416.373 370.791C415.478 371.402 414.591 372.01 413.712 372.615M346.983 423.798C357.763 414.724 368.563 406.117 378.513 398.457M378.513 398.457C387.761 391.195 399.736 382.243 413.712 372.615M378.513 398.457C392.903 387.379 405.515 378.281 413.712 372.615M464.121 674.741C472.917 679.469 480.818 683.663 487.342 687.088L499.772 692.474C401.843 738.012 335.599 719.355 314.718 704.334C268.881 673.639 304.064 618.635 327.385 594.97C352.673 612.807 402.094 640.918 442.613 663.079M464.121 674.741C460.71 672.962 457.303 671.125 453.911 669.23M464.121 674.741C460.834 672.974 457.422 671.133 453.911 669.23M453.911 669.23C451.326 667.829 448.688 666.395 446.005 664.931M453.911 669.23C453.155 668.808 452.4 668.383 451.646 667.955L446.005 664.931M446.005 664.931C445.241 664.515 444.473 664.095 443.702 663.674M442.613 663.079C442.977 663.278 443.34 663.476 443.702 663.674M442.613 663.079L443.701 663.673M295.587 485.436C293.597 496.273 291.616 509.024 290.37 521.363M295.587 485.436C292.992 499.346 291.341 511.268 290.37 521.363M290.37 521.363C288.267 543.236 289.362 556.53 290.994 562.878M290.37 521.363C288.717 537.74 288.359 553.391 290.994 562.878M630.019 270.867L641.672 268.178C659.652 262.011 705.009 253.945 755.843 264.734M630.019 270.867C627.743 280.387 624.66 294.477 621.489 310.923M630.019 270.867C626.931 282.644 624.073 296.43 621.489 310.923M607.143 420.71C609.158 397.648 614.251 351.514 621.489 310.923M607.143 420.71C568.898 437.93 564.207 493.671 566.842 523.549M607.143 420.71C590.74 426.477 560.315 455.069 566.842 523.549M607.143 420.71C608.381 386.592 615.112 343.994 621.489 310.923M607.143 420.71L623.436 414.126M567.347 528.297C567.159 526.693 566.991 525.111 566.842 523.549M567.347 528.297C573.353 559.233 585.089 581.738 597.399 597.343M567.347 528.297C569.523 544.244 578.249 573.533 597.399 597.343M567.347 528.297C567.159 526.802 566.989 525.216 566.842 523.549M631.537 625.246C617.609 618.432 606.362 608.488 597.399 597.343M631.537 625.246C632.384 628.624 633.37 632.079 634.473 635.583M631.537 625.246C632.132 627.844 633.098 631.324 634.473 635.583M631.537 625.246C623.268 622.107 610.031 613.358 597.399 597.343M631.537 625.246L654.945 633.963M682.336 732.888L692.117 732.414M682.336 732.888C679.447 732.632 675.938 732.294 671.963 731.881M682.336 732.888C682.235 732.73 682.135 732.571 682.035 732.413M682.336 732.888C682.206 732.689 682.075 732.488 681.941 732.283M623.436 414.126C624.605 413.672 626.185 413.169 628.136 412.672M623.436 414.126C624.988 413.592 626.555 413.108 628.136 412.672M654.945 633.963C672.312 635.854 687.068 632.773 692.275 630.997C693.52 630.752 694.918 630.425 696.453 630.01M654.945 633.963C663.249 635.766 677.931 635.62 696.453 630.01M634.473 635.583C640.716 654.934 655.381 690.37 681.952 732.283M634.473 635.583C645.948 672.061 670.048 713.996 681.941 732.283M776.007 269.977C768.929 300.647 757.568 378.448 760.5 445.372M776.007 269.977C769.224 267.877 762.487 266.144 755.843 264.734M776.007 269.977C843.963 285.386 1063.5 349.872 1043 540.872C1045.5 543.872 1033.5 599.439 993.498 630.372C955.997 659.372 919.998 674.372 850.998 697.841M760.5 445.372C750.5 443.372 738.556 433.245 723.6 426.479M760.5 445.372C752.256 439.699 737.976 432.877 723.6 426.479M760.5 445.372C767.5 451.872 776.355 457.371 780.935 461.528L792.318 556.978C791.468 558.565 784.679 567.349 781.537 571.622C765.388 590.815 747.849 604.529 732.23 613.951M628.136 412.672C636.949 410.427 653.319 408.31 673.339 411.516C677.59 411.948 681.918 412.672 686.264 413.625M628.136 412.672C646.582 407.585 666.908 409.007 686.264 413.625M509.898 312.425C501.612 275.222 509.526 199.902 607.475 196.239C627.663 194.296 719.001 196.239 755.843 264.734M509.898 312.425C512.572 311.093 515.248 309.801 517.913 308.563M509.898 312.425L517.913 308.563M755.843 264.734C734.2 253.906 658.636 247.219 527.127 304.486M517.913 308.563C521.008 307.125 524.087 305.759 527.127 304.486M517.913 308.563C521.014 307.169 524.086 305.811 527.127 304.486M723.6 426.479C712.208 421.409 699.462 416.774 686.264 413.625M723.6 426.479C712.009 421.236 699.06 416.433 686.264 413.625M850.998 697.841C812.669 672.191 788.814 604.88 778.88 576.58C762.781 593.066 746.981 605.176 732.23 613.951M850.998 697.841C848.506 699.162 851.205 696.309 847.944 697.841M732.23 613.951C717.795 622.658 705 627.699 696.453 630.01M732.23 613.951C719.335 621.621 707.242 626.743 696.453 630.01M617.811 724.677C636.281 728.676 654.462 730.934 671.963 731.881M617.811 724.677C637.107 727.897 657.584 730.385 671.963 731.881M617.811 724.677C609.038 740.966 600.523 778.386 636.656 797.753C654.935 805.363 707.971 810.798 773.882 771.655C788.552 763.38 823.903 737.033 847.944 697.841M822.502 708.456C808.965 714.485 784.953 722.225 754.508 727.25M822.502 708.456C803.591 715.51 780.024 722.645 754.508 727.25M822.502 708.456C832.382 704.771 840.991 701.109 847.944 697.841M822.502 708.456L847.944 697.841M692.117 732.414C694.93 732.412 697.72 732.378 700.485 732.315M692.117 732.414L695.44 732.253C697.122 732.291 698.804 732.311 700.485 732.315M692.117 732.414C688.761 732.417 685.371 732.374 681.952 732.283M671.963 731.881C675.315 732.062 678.642 732.195 681.941 732.283M754.508 727.25C737.12 730.389 718.827 732.352 700.485 732.315M754.508 727.25C738.149 729.951 719.932 731.868 700.485 732.315M681.952 732.283L682.035 732.413M681.952 732.283C681.98 732.326 682.007 732.37 682.035 732.413M681.952 732.283C681.949 732.283 681.945 732.283 681.941 732.283" stroke="black" stroke-width="5"/>
<path d="M976.999 441.872C976.999 484.122 942.748 518.372 900.499 518.372C858.249 518.372 823.999 484.122 823.999 441.872C823.999 399.622 858.249 365.372 900.499 365.372C942.748 365.372 976.999 399.622 976.999 441.872Z" fill="white"/>
<circle cx="910.499" cy="441.872" r="49.5" fill="#0B0B0B"/>
<path d="M781.499 485.872C730.499 485.872 641.498 450.372 577.498 460.372C631.998 486.372 709.499 494.872 781.499 485.872Z" fill="#86CF28"/>
<path d="M786.158 500.428C740.357 511.428 579.499 517.372 569.999 530.372C616.499 540.872 741.857 529.928 786.158 500.428Z" fill="#86CF28"/>
<path d="M786.158 519.372C740.357 530.372 606.499 578.872 596.999 591.872C643.499 602.372 741.857 548.872 786.158 519.372Z" fill="#86CF28"/>
<path d="M781.499 485.872C730.499 485.872 641.498 450.372 577.498 460.372C631.998 486.372 709.499 494.872 781.499 485.872Z" stroke="black" stroke-width="5"/>
<path d="M786.158 500.428C740.357 511.428 579.499 517.372 569.999 530.372C616.499 540.872 741.857 529.928 786.158 500.428Z" stroke="black" stroke-width="5"/>
<path d="M786.158 519.372C740.357 530.372 606.499 578.872 596.999 591.872C643.499 602.372 741.857 548.872 786.158 519.372Z" stroke="black" stroke-width="5"/>
<path d="M291.998 507.372L291.998 519.372C239.963 495.186 108.104 435.636 94.4982 419.872C95.3858 412.075 162.385 418.597 291.998 507.372Z" fill="#86CF28"/>
<path d="M288.776 526.372C262.74 520.94 136.499 485.372 66.9985 498.372C59.5665 502.956 127.998 531.872 277.616 534.959L288.776 534.959L288.776 526.372Z" fill="#86CF28"/>
<path d="M288.776 545.872C222.569 555.117 82.1566 579.564 82.4985 597.372C104.999 609.872 184.179 588.292 288.776 553.999L288.776 545.872Z" fill="#86CF28"/>
<path d="M291.998 507.372L291.998 519.372C239.963 495.186 108.104 435.636 94.4982 419.872C95.3858 412.075 162.385 418.597 291.998 507.372Z" stroke="black" stroke-width="5"/>
<path d="M288.776 526.372C262.74 520.94 136.499 485.372 66.9985 498.372C59.5665 502.956 127.998 531.872 277.616 534.959L288.776 534.959L288.776 526.372Z" stroke="black" stroke-width="5"/>
<path d="M288.776 545.872C222.569 555.117 82.1566 579.564 82.4985 597.372C104.999 609.872 184.179 588.292 288.776 553.999L288.776 545.872Z" stroke="black" stroke-width="5"/>
<path d="M940.999 458.372C940.999 463.895 936.521 468.372 930.999 468.372C925.476 468.372 920.999 463.895 920.999 458.372C920.999 452.849 925.476 448.372 930.999 448.372C936.521 448.372 940.999 452.849 940.999 458.372Z" fill="white"/>
<path d="M985.999 629.872C967.165 623.039 925.799 603.372 910.999 579.372C911.165 600.539 917.999 645.572 943.999 656.372L985.999 629.872Z" fill="#FFFCFC" stroke="black" stroke-width="8"/>
</svg>
