<svg width="274" height="287" viewBox="0 0 274 287" fill="none" xmlns="http://www.w3.org/2000/svg">
<path d="M208.149 2.54248C187.149 3.54242 142.849 19.6423 133.649 76.0423C150.6 84.8052 161.309 96.5819 167.771 109.042L256.155 65.0425C246.579 43.3461 231.404 21.4643 208.149 2.54248Z" fill="#56C6D1"/>
<path d="M268.149 161.042C272.515 141.237 273.098 103.43 256.155 65.0425L167.771 109.042C174.308 121.646 176.501 134.95 176.415 146.542L268.149 161.042Z" fill="#56C6D1"/>
<path d="M176.415 146.542C176.35 155.4 174.954 163.259 173.149 169.042C168.431 178.854 162.996 186.423 157.149 192.164L196.649 269.719C230.744 253.416 260.184 220.88 268.149 161.042L176.415 146.542Z" fill="#56C6D1"/>
<path d="M92.649 280.042C119.222 286.043 160.545 286.982 196.649 269.719L157.149 192.164C143.117 205.942 126.714 209.193 112.149 207.651L92.649 280.042Z" fill="#56C6D1"/>
<path d="M112.149 207.651C100.371 206.405 89.7956 202.024 82.649 197.542C79.1225 193.673 76.2798 189.829 74.0282 186.042L15.0812 224.542C27.6316 249.177 51.1864 271.185 92.649 280.042L112.149 207.651Z" fill="#56C6D1"/>
<path d="M4.64935 146.542C0.771091 165.933 0.994565 196.893 15.0812 224.542L74.0282 186.042C66.9594 174.154 65.7171 162.829 67.4382 153.042L4.64935 146.542Z" fill="#56C6D1"/>
<path d="M67.4382 153.042C69.6461 140.488 76.7312 130.467 82.649 125.042L57.6489 78.2545C34.1621 87.8562 13.2268 108.13 4.64935 146.542L67.4382 153.042Z" fill="#56C6D1"/>
<path d="M133.649 76.0423C114.787 70.2591 84.5449 67.2592 57.6489 78.2545L82.649 125.042C99.2679 118.604 110.801 118.597 118.649 121.974L133.649 76.0423Z" fill="#56C6D1"/>
<path d="M167.771 109.042C161.309 96.5819 150.6 84.8052 133.649 76.0423L118.649 121.974C131.768 127.618 134.588 142.718 133.649 153.042L173.149 169.042C174.954 163.259 176.35 155.4 176.415 146.542C176.501 134.95 174.308 121.646 167.771 109.042Z" fill="#56C6D1"/>
<path d="M157.149 192.164C162.996 186.423 168.431 178.854 173.149 169.042L133.649 153.042C127.178 167.698 119.393 172.519 112.149 172.452V207.651C126.714 209.193 143.117 205.942 157.149 192.164Z" fill="#56C6D1"/>
<path d="M82.649 197.542C89.7956 202.024 100.371 206.405 112.149 207.651V172.452C119.393 172.519 127.178 167.698 133.649 153.042C134.588 142.718 131.768 127.618 118.649 121.974C110.801 118.597 99.2679 118.604 82.649 125.042C76.7312 130.467 69.6461 140.488 67.4382 153.042C65.7171 162.829 66.9594 174.154 74.0282 186.042C76.2798 189.829 79.1225 193.673 82.649 197.542Z" fill="#56C6D1"/>
<path d="M133.649 153.042C134.588 142.718 131.768 127.618 118.649 121.974M133.649 153.042L173.149 169.042M133.649 153.042C127.178 167.698 119.393 172.519 112.149 172.452M82.649 125.042C76.7312 130.467 69.6461 140.488 67.4382 153.042M82.649 125.042L57.6489 78.2545M82.649 125.042C99.2679 118.604 110.801 118.597 118.649 121.974M173.149 169.042C174.954 163.259 176.35 155.4 176.415 146.542M173.149 169.042C168.431 178.854 162.996 186.423 157.149 192.164M133.649 76.0423C142.849 19.6423 187.149 3.54242 208.149 2.54248C231.404 21.4643 246.579 43.3461 256.155 65.0425M133.649 76.0423C150.6 84.8052 161.309 96.5819 167.771 109.042M133.649 76.0423C114.787 70.2591 84.5449 67.2592 57.6489 78.2545M133.649 76.0423L118.649 121.974M4.64935 146.542C0.771091 165.933 0.994565 196.893 15.0812 224.542M4.64935 146.542L67.4382 153.042M4.64935 146.542C13.2268 108.13 34.1621 87.8562 57.6489 78.2545M92.649 280.042C119.222 286.043 160.545 286.982 196.649 269.719M92.649 280.042L112.149 207.651M92.649 280.042C51.1864 271.185 27.6316 249.177 15.0812 224.542M268.149 161.042C272.515 141.237 273.098 103.43 256.155 65.0425M268.149 161.042L176.415 146.542M268.149 161.042C260.184 220.88 230.744 253.416 196.649 269.719M167.771 109.042L256.155 65.0425M167.771 109.042C174.308 121.646 176.501 134.95 176.415 146.542M157.149 192.164L196.649 269.719M157.149 192.164C143.117 205.942 126.714 209.193 112.149 207.651M112.149 207.651C100.371 206.405 89.7956 202.024 82.649 197.542C79.1225 193.673 76.2798 189.829 74.0282 186.042M112.149 207.651V172.452M74.0282 186.042L15.0812 224.542M74.0282 186.042C66.9594 174.154 65.7171 162.829 67.4382 153.042M112.149 172.452C104.168 172.378 94.7916 172.452 89.9995 161.042C85.2074 149.632 96.9995 128.542 115 142.542" stroke="#2D5986" stroke-width="5"/>
</svg>
