<svg width="925" height="1888" viewBox="0 0 925 1888" fill="none" xmlns="http://www.w3.org/2000/svg">
<path d="M547.505 1879.56C522.398 1779.52 505.421 1535.6 547.505 1436.61C600.111 1312.88 683.801 1289.18 705.321 1223.37C726.842 1157.55 750.753 820.566 800.968 870.587C841.219 881.118 921.242 886.384 919.329 823.199C929.691 774.933 920.525 687.879 800.968 725.79C782.237 709.115 765.818 645.753 849.986 525.703C934.155 405.652 916.141 242.25 896.614 175.555C884.259 147.085 860.029 131.447 861.942 296.659C841.617 353.7 795.946 409.336 775.86 175.555C775.462 110.617 767.731 -14.5223 739.993 4.433C705.321 28.1272 699.344 78.1488 726.842 241.375C754.34 404.602 775.86 362.479 775.86 423.031C767.89 483.583 739.276 568.355 688.583 423.031C680.613 344.928 658.216 193.987 632.391 215.049C600.111 241.375 576.199 272.968 632.391 423.031C688.583 573.094 726.842 580.993 726.842 725.79C713.69 765.28 671.588 787.041 659.89 696.83C644.09 634.345 610.871 649.442 610.871 754.749C620.178 870.587 657.498 1046.98 634.782 1136.49C614.457 1191.78 621.153 1263.91 561.852 1204.94C581.38 1156.67 610.393 1052.77 570.221 1023.28C554.28 1027.67 517.138 1070.15 496.096 1204.94C487.663 1233.5 484.642 1285.61 475.176 1362.4C461.552 1480.93 449.963 1621.3 451.592 1733.34C451.598 1733.61 451.602 1733.86 451.603 1734.11C452.342 1783.08 455.618 1845.69 462.366 1879.56C464.489 1890.21 472.338 1875.89 475.176 1884.5L547.505 1879.56Z" fill="#8EC744"/>
<path d="M404.471 1884.5H393.711C353.941 1849.9 328.286 1793.99 311.776 1729.17L243.068 1539.61C221.547 1350.06 253.828 1218.43 290.891 1097.32C320.541 1000.44 303.245 963.933 290.891 957.79C269.848 909.349 250.241 1011.32 243.068 1068.36C213.178 1068.36 253.828 920.933 296.868 818.258C339.909 715.583 336.322 655.031 327.953 644.5C319.584 633.97 306.433 610.275 282.522 655.031C263.393 690.836 255.422 733.134 253.828 749.808C241.394 636.076 303.643 416.334 336.322 320.68C367.886 242.752 359.038 140.78 350.669 99.5342C323.888 42.6704 303.643 75.8409 296.868 99.5342C289.695 220.638 296.869 276.8 282.522 291.718C268.175 340.159 212.78 152.188 186.876 62.6766C132.358 -0.507931 112.351 60.9214 109.163 99.5342C102.468 179.568 194.049 254.863 219.156 320.68C222.982 682.938 192.853 738.4 177.311 720.848C106.533 583.949 68.9119 619.929 58.9488 655.031C48.1886 728.746 98.4028 749.808 134.27 818.258C162.964 873.018 174.92 1007.81 177.311 1068.36C143.835 1268.45 91.6279 1160.51 69.709 1081.53C42.9281 887.761 16.3067 893.728 6.34368 920.933C-19.959 1149.98 94.8163 1218.43 165.355 1384.29C221.786 1516.97 203.215 1543.12 186.876 1539.61C110.359 1419.56 69.709 1455.37 79.2736 1523.82C198.831 1802.88 298.862 1852.35 363.822 1879.56L404.471 1884.5Z" fill="#8EC744"/>
<path d="M462.366 1879.56C455.618 1845.69 452.342 1783.08 451.603 1734.11L451.592 1733.34C450.775 1700.08 401.916 1541.38 446.06 1431.67C455.792 1407.49 469.072 1387.17 475.176 1362.4C482.114 1302.04 489.579 1247.34 496.096 1204.94C493.534 1183.88 474.752 1105.92 446.06 1169.1C428.61 1282.31 393.711 1506.97 393.711 1502.76C393.711 1497.49 320.781 1555.41 363.822 1268.45C375.777 1235.98 393.711 1168.41 456.823 1097.32C503.704 976.219 459.467 818.258 503.704 818.258C556.708 762.094 590.497 665.562 588.59 610.275C586.682 554.989 569.187 486.54 514.464 655.031C495.335 642.745 474.054 590.267 541.962 478.641C568.265 452.314 614.414 391.236 588.59 357.537C579.509 318.047 549.819 280.663 503.704 447.049C485.372 435.64 468.554 417.563 490.552 320.68C518.051 199.576 401.567 239.067 446.06 447.049C455.71 531.295 466.88 690.836 434.36 655.031C421.607 626.949 397.776 552.356 404.471 478.641C412.84 386.497 333.932 441.783 363.822 581.316C368.433 662.052 446.06 879.509 446.06 920.933C446.06 962.356 422.147 1000.61 404.471 976.219C386.795 951.826 393.711 865.645 363.822 865.645C341.105 865.645 331.302 905.663 363.822 1097.32C336.323 1156.12 281.565 1305.3 282.522 1431.67C283.226 1524.76 288.084 1636.14 311.776 1729.17C328.286 1793.99 353.941 1849.9 393.711 1884.5H404.471L462.366 1879.56Z" fill="#5A8F47"/>
<path d="M496.096 1204.94C517.138 1070.15 554.28 1027.67 570.221 1023.28C610.393 1052.77 581.38 1156.67 561.852 1204.94C621.153 1263.91 614.457 1191.78 634.782 1136.49C657.498 1046.98 620.178 870.587 610.871 754.749C610.871 649.442 644.09 634.345 659.89 696.83C671.588 787.041 713.69 765.28 726.842 725.79C726.842 580.993 688.583 573.094 632.391 423.031C576.199 272.968 600.111 241.375 632.391 215.049C658.216 193.987 680.613 344.928 688.583 423.031C739.276 568.355 767.89 483.583 775.86 423.031C775.86 362.479 754.34 404.602 726.842 241.375C699.344 78.1488 705.321 28.1272 739.993 4.433C767.731 -14.5223 775.462 110.617 775.86 175.555C795.946 409.336 841.617 353.7 861.942 296.659C860.029 131.447 884.259 147.085 896.614 175.555C916.141 242.25 934.155 405.652 849.986 525.703C765.818 645.753 782.237 709.115 800.968 725.79C920.525 687.879 929.691 774.933 919.329 823.199C921.242 886.384 841.219 881.118 800.968 870.587C750.753 820.566 726.842 1157.55 705.321 1223.37C683.801 1289.18 600.111 1312.88 547.505 1436.61C505.421 1535.6 522.398 1779.52 547.505 1879.56L475.176 1884.5C472.338 1875.89 464.489 1890.21 462.366 1879.56M496.096 1204.94C493.534 1183.88 474.752 1105.92 446.06 1169.1C428.61 1282.31 393.711 1506.97 393.711 1502.76C393.711 1497.49 320.781 1555.41 363.822 1268.45C375.777 1235.98 393.711 1168.41 456.823 1097.32C503.704 976.219 459.467 818.258 503.704 818.258C556.708 762.094 590.497 665.562 588.59 610.275C586.682 554.989 569.187 486.54 514.464 655.031C495.335 642.745 474.054 590.267 541.962 478.641C568.265 452.314 614.414 391.236 588.59 357.537C579.509 318.047 549.819 280.663 503.704 447.049C485.372 435.64 468.554 417.563 490.552 320.68C518.051 199.576 401.567 239.067 446.06 447.049C455.71 531.295 466.88 690.836 434.36 655.031C421.607 626.949 397.776 552.356 404.471 478.641C412.84 386.497 333.932 441.783 363.822 581.316C368.433 662.052 446.06 879.509 446.06 920.933C446.06 962.356 422.147 1000.61 404.471 976.219C386.795 951.826 393.711 865.645 363.822 865.645C341.105 865.645 331.302 905.663 363.822 1097.32C336.323 1156.12 281.565 1305.3 282.522 1431.67C283.226 1524.76 288.084 1636.14 311.776 1729.17M496.096 1204.94C487.663 1233.5 484.642 1285.61 475.176 1362.4M496.096 1204.94C489.579 1247.34 482.114 1302.04 475.176 1362.4M462.366 1879.56C455.618 1845.69 452.342 1783.08 451.603 1734.11M462.366 1879.56L404.471 1884.5M451.603 1734.11C451.602 1733.86 451.598 1733.61 451.592 1733.34M451.603 1734.11C451.599 1733.85 451.596 1733.6 451.592 1733.34M451.603 1734.11L451.592 1733.34M404.471 1884.5H393.711C353.941 1849.9 328.286 1793.99 311.776 1729.17M404.471 1884.5L363.822 1879.56C298.862 1852.35 198.831 1802.88 79.2736 1523.82C69.709 1455.37 110.359 1419.56 186.876 1539.61C203.215 1543.12 221.786 1516.97 165.355 1384.29C94.8163 1218.43 -19.959 1149.98 6.34368 920.933C16.3067 893.728 42.9281 887.761 69.709 1081.53C91.6279 1160.51 143.835 1268.45 177.311 1068.36C174.92 1007.81 162.964 873.018 134.27 818.258C98.4028 749.808 48.1886 728.746 58.9488 655.031C68.9119 619.929 106.533 583.949 177.311 720.848C192.853 738.4 222.982 682.938 219.156 320.68C194.049 254.863 102.468 179.568 109.163 99.5342C112.351 60.9214 132.358 -0.507931 186.876 62.6766C212.78 152.188 268.175 340.159 282.522 291.718C296.869 276.8 289.695 220.638 296.868 99.5342C303.643 75.8409 323.888 42.6704 350.669 99.5342C359.038 140.78 367.886 242.752 336.322 320.68C303.643 416.334 241.394 636.076 253.828 749.808C255.422 733.134 263.393 690.836 282.522 655.031C306.433 610.275 319.584 633.97 327.953 644.5C336.322 655.031 339.909 715.583 296.868 818.258C253.828 920.933 213.178 1068.36 243.068 1068.36C250.241 1011.32 269.848 909.349 290.891 957.79C303.245 963.933 320.541 1000.44 290.891 1097.32C253.828 1218.43 221.547 1350.06 243.068 1539.61L311.776 1729.17M475.176 1362.4C461.552 1480.93 449.963 1621.3 451.592 1733.34M475.176 1362.4C469.072 1387.17 455.792 1407.49 446.06 1431.67C401.916 1541.38 450.775 1700.08 451.592 1733.34" stroke="#0D0D0C" stroke-width="5"/>
</svg>
