<svg width="391" height="194" viewBox="0 0 391 194" fill="none" xmlns="http://www.w3.org/2000/svg">
<path d="M123.03 13.6285C109.253 21.0336 93.4563 34.7238 82.0798 52.1284C71.4361 68.4121 64.6614 87.9472 67.0297 108.628C69.5657 130.774 72.6343 146.199 84.5871 159.017C85.0923 159.559 85.6133 160.096 86.1508 160.628C95.5056 169.899 109.858 177.854 132.53 186.128C145.363 192.628 187.93 195.328 255.53 154.128C264.697 147.628 292.13 136.928 328.53 146.128C351.821 157.43 381.857 168.79 386.103 160.628C287.761 84.2286 225.529 86.7691 206.53 87.6284C126.93 91.2284 105.529 57.6284 113.53 42.6284C153.529 -12.3716 293.095 62.1285 346.53 108.628C304.03 60.9618 199.83 -24.7715 123.03 13.6285Z" fill="#FDDE6B"/>
<path d="M82.0798 52.1284C55.8338 68.9708 15.6912 107.443 55.0291 141.864C62.4042 148.318 72.573 154.629 86.1508 160.628C85.6133 160.096 85.0923 159.559 84.5871 159.017C72.6343 146.199 69.5657 130.774 67.0297 108.628C64.6614 87.9472 71.4361 68.4121 82.0798 52.1284Z" fill="#FDDE6B"/>
<path d="M346.53 108.628C293.095 62.1285 153.529 -12.3716 113.53 42.6284C105.529 57.6284 126.93 91.2284 206.53 87.6284C225.529 86.7691 287.761 84.2286 386.103 160.628C389.058 154.949 379.522 139.815 346.53 108.628Z" fill="#B15901"/>
<path d="M28.0296 95.6403C-0.971045 106.628 -7.17261 119.011 30.8277 129.128M55.0291 74.8146C21.0291 96.2967 -2.57087 119.064 55.0291 141.864M55.0291 141.864C15.6912 107.443 55.8338 68.9708 82.0798 52.1284M55.0291 141.864C62.4042 148.318 72.573 154.629 86.1508 160.628M82.0798 52.1284C50.9132 72.1284 0.150795 122.628 86.1508 160.628M82.0798 52.1284C93.4563 34.7238 109.253 21.0336 123.03 13.6285M82.0798 52.1284C71.4361 68.4121 64.6614 87.9472 67.0297 108.628M86.1508 160.628C95.5056 169.899 109.858 177.854 132.53 186.128M86.1508 160.628C85.6133 160.096 85.0923 159.559 84.5871 159.017M123.03 13.6285C96.3631 27.9618 62.1301 65.8423 67.0297 108.628M123.03 13.6285C199.83 -24.7715 304.03 60.9618 346.53 108.628M67.0297 108.628C69.5657 130.774 72.6343 146.199 84.5871 159.017M132.53 186.128C145.363 192.628 187.93 195.328 255.53 154.128C264.697 147.628 292.13 136.928 328.53 146.128C351.821 157.43 381.857 168.79 386.103 160.628M132.53 186.128C108.555 177.378 93.8838 168.986 84.5871 159.017M346.53 108.628C293.095 62.1285 153.529 -12.3716 113.53 42.6284C105.529 57.6284 126.93 91.2284 206.53 87.6284C225.529 86.7691 287.761 84.2286 386.103 160.628M346.53 108.628C379.522 139.815 389.058 154.949 386.103 160.628" stroke="#FCC41B" stroke-width="8"/>
<path d="M53.2871 76.5039C30.1204 88.8372 -3.51482 118.304 49.2852 139.504C39.6187 128.004 27.2874 99.7039 53.2871 76.5039Z" fill="#FDDE6B"/>
<path d="M21.2871 125.004C8.10967 120.886 -9.17016 112.584 19.7387 98.0219C17.0263 101.283 18.9888 115.638 21.2871 125.004Z" fill="#FDDE6B"/>
<path d="M19.7387 98.0219C-9.17016 112.584 8.10967 120.886 21.2871 125.004C18.9888 115.638 17.0263 101.283 19.7387 98.0219ZM19.7387 98.0219C20.0188 97.685 35.3653 87.5003 35.7853 87.5003C35.4298 87.6733 20.0807 97.8496 19.7387 98.0219ZM53.2871 76.5039C30.1204 88.8372 -3.51482 118.304 49.2852 139.504C39.6187 128.004 27.2874 99.7039 53.2871 76.5039Z" stroke="#FCC41B" stroke-width="8"/>
</svg>
