<svg width="948" height="652" viewBox="0 0 948 652" fill="none" xmlns="http://www.w3.org/2000/svg">
<path d="M392.626 434.58C383.626 432.08 372.876 423.256 358.876 428.756C344.876 434.256 297.504 465.256 284.876 475.756C225.676 376.956 268.876 226.929 297.876 164.266C347.671 120.122 409.445 76.2709 510.351 57.4862C506.416 59.2967 502.405 61.3734 498.351 63.7129C435.011 100.263 361.005 200.971 399.351 353.08C440.151 514.926 490.351 566.327 510.351 571.797C464.883 561.543 428.249 552.439 405.491 542.256C406.598 497.966 397.813 436.021 392.626 434.58Z" fill="#F15B29"/>
<path d="M258.876 607.256C184.876 575.256 245.376 506.256 284.876 475.756C297.504 465.256 344.876 434.256 358.876 428.756C372.876 423.256 383.626 432.08 392.626 434.58C397.813 436.021 406.598 497.966 405.491 542.256C404.677 574.812 402.706 603.867 400.376 607.256C394.876 615.256 351.376 647.256 258.876 607.256Z" fill="#F15B29"/>
<path d="M510.351 57.4862C409.445 76.2709 347.671 120.122 297.876 164.266C273.253 186.094 243.871 202.553 227.945 223.58C199.586 175.58 219.126 159.08 219.126 149.08C233.945 126.58 272.376 112.919 297.876 103.756C394.376 5.25581 400.376 16.2558 431.876 8.75581C457.076 2.75581 516.018 34.0284 542.851 52.5023C531.697 53.8582 520.866 55.5286 510.351 57.4862Z" fill="#F15B29"/>
<path d="M3.87592 393.756C6.37592 329.756 14.3759 267.756 68.8759 246.756C78.2886 243.129 87.995 243.01 97.6257 245.369C205.226 384.399 126.919 468.439 74.3157 493.08C42.6783 483.867 1.92317 443.746 3.87592 393.756Z" fill="#F15B29"/>
<path fill-rule="evenodd" clip-rule="evenodd" d="M945.126 317.58C941.126 251.58 917.792 216.247 912.626 209.58C892.703 165.08 822.34 77.1036 683.351 54.2421C613.018 87.0216 477.551 192.68 498.351 353.08C519.151 513.48 607.018 576.303 648.351 587.664C675.978 587.51 704.989 589.267 732.376 583.756C774.422 575.295 809.487 559.072 838.126 538.213C805.326 550.719 788.126 507.119 783.626 483.756C832.126 509.08 885.761 489.756 892.703 483.756C932.514 429.481 947.924 363.749 945.126 317.58Z" fill="#F15B29"/>
<path d="M555.851 51.0804C626.445 44.2084 646.044 48.1058 683.351 54.2421C613.018 87.0216 477.551 192.68 498.351 353.08C519.151 513.48 607.018 576.303 648.351 587.664C599.449 587.937 551.675 581.116 510.351 571.797C490.351 566.327 440.151 514.926 399.351 353.08C361.005 200.971 435.011 100.263 498.351 63.7129C502.405 61.3734 506.416 59.2967 510.351 57.4862C520.866 55.5286 531.697 53.8582 542.851 52.5023C547.136 51.9814 548.945 51.7526 555.851 51.0804Z" fill="white"/>
<path d="M209.376 406.756C174.176 452.356 124.626 487.58 97.6257 493.08C91.3323 495.817 83.182 495.662 74.3157 493.08C126.919 468.439 205.226 384.399 97.6257 245.369C132.605 253.936 166.586 295.187 181.876 319.756C186.091 315.742 197.518 263.756 227.945 223.58C243.871 202.553 273.253 186.094 297.876 164.266C268.876 226.929 225.676 376.956 284.876 475.756L209.376 406.756Z" fill="white"/>
<path d="M783.626 483.756C832.126 509.08 885.761 489.756 892.703 483.756C878.087 503.683 859.976 522.298 838.126 538.213C805.326 550.719 788.126 507.119 783.626 483.756Z" fill="white"/>
<path d="M284.876 475.756L209.376 406.756C174.176 452.356 124.626 487.58 97.6257 493.08C91.3323 495.817 83.182 495.662 74.3157 493.08M284.876 475.756C245.376 506.256 184.876 575.256 258.876 607.256C351.376 647.256 394.876 615.256 400.376 607.256C402.706 603.867 404.677 574.812 405.491 542.256M284.876 475.756C297.504 465.256 344.876 434.256 358.876 428.756C372.876 423.256 383.626 432.08 392.626 434.58C397.813 436.021 406.598 497.966 405.491 542.256M284.876 475.756C225.676 376.956 268.876 226.929 297.876 164.266M405.491 542.256C428.249 552.439 464.883 561.543 510.351 571.797M683.351 54.2421C822.34 77.1036 892.703 165.08 912.626 209.58C917.792 216.247 941.126 251.58 945.126 317.58C947.924 363.749 932.514 429.481 892.703 483.756M683.351 54.2421C646.044 48.1058 626.445 44.2084 555.851 51.0804C548.945 51.7526 547.136 51.9814 542.851 52.5023M683.351 54.2421C613.018 87.0216 477.551 192.68 498.351 353.08C519.151 513.48 607.018 576.303 648.351 587.664M648.351 587.664C675.978 587.51 704.989 589.267 732.376 583.756C774.422 575.295 809.487 559.072 838.126 538.213M648.351 587.664C599.449 587.937 551.675 581.116 510.351 571.797M510.351 57.4862C409.445 76.2709 347.671 120.122 297.876 164.266M510.351 57.4862C520.866 55.5286 531.697 53.8582 542.851 52.5023M510.351 57.4862C506.416 59.2967 502.405 61.3734 498.351 63.7129M510.351 571.797C490.351 566.327 440.151 514.926 399.351 353.08C361.005 200.971 435.011 100.263 498.351 63.7129M297.876 164.266C273.253 186.094 243.871 202.553 227.945 223.58M542.851 52.5023C516.018 34.0284 457.076 2.75581 431.876 8.75581C400.376 16.2558 394.376 5.25581 297.876 103.756C272.376 112.919 233.945 126.58 219.126 149.08C219.126 159.08 199.586 175.58 227.945 223.58M542.851 52.5023L498.351 63.7129M227.945 223.58C197.518 263.756 186.091 315.742 181.876 319.756C166.586 295.187 132.605 253.936 97.6257 245.369M892.703 483.756C885.761 489.756 832.126 509.08 783.626 483.756C788.126 507.119 805.326 550.719 838.126 538.213M892.703 483.756C878.087 503.683 859.976 522.298 838.126 538.213M74.3157 493.08C42.6783 483.867 1.92317 443.746 3.87592 393.756C6.37592 329.756 14.3759 267.756 68.8759 246.756C78.2886 243.129 87.995 243.01 97.6257 245.369M74.3157 493.08C126.919 468.439 205.226 384.399 97.6257 245.369M99.1257 244.08C142.959 295.08 200.326 416.58 79.1257 494.58" stroke="black" stroke-width="5"/>
<path d="M735.445 141.502C641.727 141.502 565.945 214.136 565.945 303.502C565.945 392.869 641.727 465.502 735.445 465.502C829.164 465.502 904.945 392.869 904.945 303.502C904.945 214.136 829.164 141.502 735.445 141.502Z" fill="white" stroke="black" stroke-width="5"/>
<path d="M344.445 57.2444C346.365 55.8036 350.934 51.9192 351.945 51.7444C362.009 59.7619 382.425 77.3276 391.945 93.2449C389.567 94.5432 384.691 97.9587 383.769 98.6503C377.274 88.6853 361.518 68.6626 344.445 57.2444Z" fill="#C63200"/>
<path d="M299.445 102.244L301.945 98.6503L305.945 96.245C317.024 103.865 338.119 122.749 339.071 125.245L332.432 129.774C324.339 121.859 303.995 101.458 299.445 102.244Z" fill="#C63200"/>
<path d="M320.445 82.2444C321.201 80.3397 324.945 77.1266 324.945 77.7444C324.945 78.3857 344.239 89.3675 363.945 109.245L355.891 113.592C345.989 103.995 329.932 85.9263 320.445 82.2444Z" fill="#C63200"/>
<path d="M409.445 84.978L417.445 81.0914C407.715 67.4724 387.059 31.6214 379.445 29.7444C376.15 30.7577 371.846 36.1365 370.445 35.2444C376.133 38.0309 392.636 57.0155 409.445 84.978Z" fill="#C63200"/>
<path d="M482.945 22.7452C485.907 23.5638 493.166 26.8695 494.445 28.245C495.35 30.9714 497.664 39.8998 501.445 55.745C499.859 55.354 495.39 56.1337 491.851 56.7455C490.003 47.3077 485.503 25.4963 482.945 22.7452Z" fill="#C63200"/>
<path d="M432.945 10.1773C436.39 10.0252 446.755 10.3863 447.945 11.245C452.916 19.9212 468.147 52.6722 471.451 62.7454L462.951 65.2454C459.628 56.0626 442.583 20.752 432.945 10.1773Z" fill="#C63200"/>
<path d="M397.945 17.7444C400.014 17.1649 406.323 15.2522 409.446 15.2446C414.019 19.1109 433.143 46.0287 444.866 71.6773L438.052 73.7443C432.424 62.5206 409.664 25.2982 397.945 17.7444Z" fill="#C63200"/>
<path d="M270.945 115.244L273.945 113.592L281.897 111.244C292.976 118.865 316.944 139.749 317.897 142.245L311.258 146.774C303.164 138.859 275.495 114.458 270.945 115.244Z" fill="#C63200"/>
<path d="M216.945 160.004L218.945 149.504L220.445 148.004C229.946 155.234 262.493 187.508 263.445 190.004L255.445 195.004C247.352 187.09 220.945 162.504 216.945 160.004Z" fill="#C63200"/>
<path d="M247.445 126.244C258.524 133.864 290.619 161.278 291.571 163.774L284.932 168.303C276.839 160.388 243.995 130.958 239.445 131.744L242.445 128.744L247.445 126.244Z" fill="#C63200"/>
<path d="M344.445 57.2444C346.365 55.8036 350.934 51.9192 351.945 51.7444C362.009 59.7619 382.425 77.3276 391.945 93.2449C389.567 94.5432 384.691 97.9587 383.769 98.6503C377.274 88.6853 361.518 68.6626 344.445 57.2444Z" stroke="black" stroke-width="5"/>
<path d="M299.445 102.244L301.945 98.6503L305.945 96.245C317.024 103.865 338.119 122.749 339.071 125.245L332.432 129.774C324.339 121.859 303.995 101.458 299.445 102.244Z" stroke="black" stroke-width="5"/>
<path d="M320.445 82.2444C321.201 80.3397 324.945 77.1266 324.945 77.7444C324.945 78.3857 344.239 89.3675 363.945 109.245L355.891 113.592C345.989 103.995 329.932 85.9263 320.445 82.2444Z" stroke="black" stroke-width="5"/>
<path d="M409.445 84.978L417.445 81.0914C407.715 67.4724 387.059 31.6214 379.445 29.7444C376.15 30.7577 371.846 36.1365 370.445 35.2444C376.133 38.0309 392.636 57.0155 409.445 84.978Z" stroke="black" stroke-width="5"/>
<path d="M482.945 22.7452C485.907 23.5638 493.166 26.8695 494.445 28.245C495.35 30.9714 497.664 39.8998 501.445 55.745C499.859 55.354 495.39 56.1337 491.851 56.7455C490.003 47.3077 485.503 25.4963 482.945 22.7452Z" stroke="black" stroke-width="5"/>
<path d="M432.945 10.1773C436.39 10.0252 446.755 10.3863 447.945 11.245C452.916 19.9212 468.147 52.6722 471.451 62.7454L462.951 65.2454C459.628 56.0626 442.583 20.752 432.945 10.1773Z" stroke="black" stroke-width="5"/>
<path d="M397.945 17.7444C400.014 17.1649 406.323 15.2522 409.446 15.2446C414.019 19.1109 433.143 46.0287 444.866 71.6773L438.052 73.7443C432.424 62.5206 409.664 25.2982 397.945 17.7444Z" stroke="black" stroke-width="5"/>
<path d="M270.945 115.244L273.945 113.592L281.897 111.244C292.976 118.865 316.944 139.749 317.897 142.245L311.258 146.774C303.164 138.859 275.495 114.458 270.945 115.244Z" stroke="black" stroke-width="5"/>
<path d="M216.945 160.004L218.945 149.504L220.445 148.004C229.946 155.234 262.493 187.508 263.445 190.004L255.445 195.004C247.352 187.09 220.945 162.504 216.945 160.004Z" stroke="black" stroke-width="5"/>
<path d="M247.445 126.244C258.524 133.864 290.619 161.278 291.571 163.774L284.932 168.303C276.839 160.388 243.995 130.958 239.445 131.744L242.445 128.744L247.445 126.244Z" stroke="black" stroke-width="5"/>
<path d="M365.854 428.003C356.764 445.494 270.271 523.956 223.945 558.503L226.446 544.503C226.446 544.503 287.358 495.835 303.945 478.003C320.573 460.127 356.945 428.003 356.945 428.003L365.854 428.003Z" fill="#C63200"/>
<path d="M378.945 431.275C369.172 465.912 298.173 596.409 269.945 612.003L253.945 604.503C253.945 604.503 312.518 544.956 330.945 507.003C343.537 481.068 371.445 428.003 371.445 428.003L378.945 431.275Z" fill="#C63200"/>
<path d="M391.445 436.503C393.717 473.791 375.399 596.846 345.446 624.502L330.945 624.503C330.945 624.503 359.126 576.701 365.854 544.503C373.462 508.089 383.445 433.875 383.445 433.875L391.445 436.503Z" fill="#C63200"/>
<path d="M365.854 428.003C356.764 445.494 270.271 523.956 223.945 558.503L226.446 544.503C226.446 544.503 287.358 495.835 303.945 478.003C320.573 460.127 356.945 428.003 356.945 428.003L365.854 428.003Z" stroke="black" stroke-width="5"/>
<path d="M378.945 431.275C369.172 465.912 298.173 596.409 269.945 612.003L253.945 604.503C253.945 604.503 312.518 544.956 330.945 507.003C343.537 481.068 371.445 428.003 371.445 428.003L378.945 431.275Z" stroke="black" stroke-width="5"/>
<path d="M391.445 436.503C393.717 473.791 375.399 596.846 345.446 624.502L330.945 624.503C330.945 624.503 359.126 576.701 365.854 544.503C373.462 508.089 383.445 433.875 383.445 433.875L391.445 436.503Z" stroke="black" stroke-width="5"/>
<path d="M144.945 336.502C131.297 336.604 64.3647 305.358 29.4456 280.502L35.9456 270.502C35.9456 270.502 86.9454 295.502 104.445 304.002C119.945 311.531 140.945 321.502 140.945 321.502L144.945 336.502Z" fill="#C63200"/>
<path d="M150.002 364.002C125.348 369.185 24.9454 373.502 7.94543 362.221L9.44528 342.502C9.44528 342.502 52.9454 349.502 83.4454 351.002C103.432 351.985 148.445 353.502 148.445 353.502L150.002 364.002Z" fill="#C63200"/>
<path d="M149.304 390.458C126.283 409.791 49.4454 452.002 20.4454 448.502L11.9454 431.502C11.9454 431.502 54.4297 422.479 76.7471 413.458C101.986 403.255 150.514 381.002 150.514 381.002L149.304 390.458Z" fill="#C63200"/>
<path d="M144.945 336.502C131.297 336.604 64.3647 305.358 29.4456 280.502L35.9456 270.502C35.9456 270.502 86.9454 295.502 104.445 304.002C119.945 311.531 140.945 321.502 140.945 321.502L144.945 336.502Z" stroke="black" stroke-width="5"/>
<path d="M150.002 364.002C125.348 369.185 24.9454 373.502 7.94543 362.221L9.44528 342.502C9.44528 342.502 52.9454 349.502 83.4454 351.002C103.432 351.985 148.445 353.502 148.445 353.502L150.002 364.002Z" stroke="black" stroke-width="5"/>
<path d="M149.304 390.458C126.283 409.791 49.4454 452.002 20.4454 448.502L11.9454 431.502C11.9454 431.502 54.4297 422.479 76.7471 413.458C101.986 403.255 150.514 381.002 150.514 381.002L149.304 390.458Z" stroke="black" stroke-width="5"/>
<ellipse cx="42" cy="40" rx="42" ry="40" transform="matrix(-1 0 0 1 868.445 323.998)" fill="#0D0D0D"/>
<circle cx="10" cy="10" r="10" transform="matrix(-1 0 0 1 855.445 363.998)" fill="white"/>
</svg>
