<svg width="711" height="575" viewBox="0 0 711 575" fill="none" xmlns="http://www.w3.org/2000/svg">
<path fill-rule="evenodd" clip-rule="evenodd" d="M507.431 146.43C626.231 174.03 689.431 280.93 706.181 330.93C693.931 336.18 656.381 343.53 604.181 330.93C615.681 344.18 649.181 373.68 684.431 373.68C592.031 467.28 466.681 489.43 413.681 495.18C353.681 501.689 221.681 456.48 188.681 430.68L147.431 402.18C100.031 351.133 127.681 292.41 147.431 269.43C175.931 227.43 211.931 209.43 254.681 187.68C292.931 161.43 424.931 123.93 507.431 146.43ZM485.681 370.68C454.481 334.08 447.181 305.93 447.431 296.43C434.681 285.18 376.181 272.43 358.931 272.43C340.181 281.249 348.681 284.249 348.681 296.43C290.181 313.68 298.181 317.43 292.931 330.93C290.531 389.13 365.431 394.18 401.681 389.43C395.081 478.83 454.931 414.18 485.681 370.68Z" fill="#F4B8AE"/>
<path d="M384.431 6.17976C445.031 20.5798 491.681 105.68 507.431 146.43C424.931 123.93 292.931 161.43 254.681 187.68C207.881 142.68 248.181 130.93 274.181 130.68C253.931 45.1799 337.181 83.4298 330.431 79.6798C323.681 75.9298 308.681 -11.8202 384.431 6.17976Z" fill="#E87185"/>
<path d="M217.181 468.18C187.181 465.18 185.681 441.93 188.681 430.68C221.681 456.48 353.681 501.689 413.681 495.18C286.481 610.38 266.431 558.93 274.181 513.93C202.181 539.13 206.181 493.93 217.181 468.18Z" fill="#E87185"/>
<path d="M28.9312 206.43C79.3312 184.83 128.931 239.43 147.431 269.43C127.681 292.41 100.031 351.133 147.431 402.18C85.9312 473.43 40.1812 441.93 28.9312 441.93C-17.8689 387.93 53.9312 345.43 95.6812 330.93C81.8812 330.93 45.4312 307.93 28.9312 296.43C-16.6688 249.63 9.93115 216.93 28.9312 206.43Z" fill="#E87185"/>
<path d="M447.431 296.43C447.181 305.93 454.481 334.08 485.681 370.68C454.931 414.18 395.081 478.83 401.681 389.43C365.431 394.18 290.531 389.13 292.931 330.93C298.181 317.43 290.181 313.68 348.681 296.43C348.681 284.249 340.181 281.249 358.931 272.43C376.181 272.43 434.681 285.18 447.431 296.43Z" fill="#E87185"/>
<path d="M706.181 330.93C695.981 369.93 691.181 370.68 684.431 373.68C649.181 373.68 615.681 344.18 604.181 330.93C656.381 343.53 693.931 336.18 706.181 330.93Z" fill="white"/>
<path d="M706.181 330.93C689.431 280.93 626.231 174.03 507.431 146.43M706.181 330.93C695.981 369.93 691.181 370.68 684.431 373.68M706.181 330.93C693.931 336.18 656.381 343.53 604.181 330.93C615.681 344.18 649.181 373.68 684.431 373.68M507.431 146.43C491.681 105.68 445.031 20.5798 384.431 6.17976C308.681 -11.8202 323.681 75.9298 330.431 79.6798C337.181 83.4298 253.931 45.1799 274.181 130.68C248.181 130.93 207.881 142.68 254.681 187.68M507.431 146.43C424.931 123.93 292.931 161.43 254.681 187.68M254.681 187.68C211.931 209.43 175.931 227.43 147.431 269.43M147.431 269.43C128.931 239.43 79.3312 184.83 28.9312 206.43C9.93115 216.93 -16.6688 249.63 28.9312 296.43C45.4312 307.93 81.8812 330.93 95.6812 330.93C53.9312 345.43 -17.8689 387.93 28.9312 441.93C40.1812 441.93 85.9312 473.43 147.431 402.18M147.431 269.43C127.681 292.41 100.031 351.133 147.431 402.18M147.431 402.18L188.681 430.68M188.681 430.68C185.681 441.93 187.181 465.18 217.181 468.18C206.181 493.93 202.181 539.13 274.181 513.93C266.431 558.93 286.481 610.38 413.681 495.18M188.681 430.68C221.681 456.48 353.681 501.689 413.681 495.18M413.681 495.18C466.681 489.43 592.031 467.28 684.431 373.68M447.431 296.43C447.181 305.93 454.481 334.08 485.681 370.68C454.931 414.18 395.081 478.83 401.681 389.43C365.431 394.18 290.531 389.13 292.931 330.93C298.181 317.43 290.181 313.68 348.681 296.43C348.681 284.249 340.181 281.249 358.931 272.43C376.181 272.43 434.681 285.18 447.431 296.43Z" stroke="black" stroke-width="7.5"/>
<path d="M548.681 202.68C516.654 202.68 490.931 227.659 490.931 258.18C490.931 288.701 516.654 313.68 548.681 313.68C580.709 313.68 606.431 288.701 606.431 258.18C606.431 227.659 580.709 202.68 548.681 202.68Z" fill="white" stroke="black" stroke-width="7.5"/>
<circle cx="35.25" cy="35.25" r="35.25" transform="matrix(-1 0 0 1 610.181 227.43)" fill="black"/>
<circle cx="11.25" cy="11.25" r="11.25" transform="matrix(-1 0 0 1 604.181 251.43)" fill="#FFFCFC"/>
<path d="M278.681 175.749C273.181 167.582 260.681 148.449 254.681 137.249L244.181 139.249C250.848 152.249 264.181 176.949 268.181 179.749C272.181 179.749 276.848 177.082 278.681 175.749Z" fill="#F7C143"/>
<path d="M310.181 164.249C304.681 151.249 289.581 121.449 273.181 106.249V126.249C275.014 126.082 282.581 134.149 298.181 167.749C300.981 167.749 307.348 165.416 310.181 164.249Z" fill="#F7C143"/>
<path d="M342.681 152.749C334.514 133.249 314.681 93.149 294.681 78.749L283.181 81.749C294.014 91.4157 318.181 119.649 328.181 155.249L342.681 152.749Z" fill="#F7C143"/>
<path d="M375.181 144.249C369.014 127.416 347.681 89.249 328.181 73.249L321.181 78.749C328.348 85.249 347.181 107.949 365.181 146.749L375.181 144.249Z" fill="#F7C143"/>
<path d="M413.181 139.249C405.181 111.749 378.881 51.849 335.681 20.249L328.181 32.249C342.514 43.4157 380.681 76.749 398.681 141.249L413.181 139.249Z" fill="#F7C143"/>
<path d="M460.681 137.249C445.181 95.749 392.181 12.249 375.181 7.74902H362.181C380.181 30.249 422.681 83.749 445.681 137.249H460.681Z" fill="#F7C143"/>
<path d="M278.681 175.749C273.181 167.582 260.681 148.449 254.681 137.249L244.181 139.249C250.848 152.249 264.181 176.949 268.181 179.749C272.181 179.749 276.848 177.082 278.681 175.749Z" stroke="black" stroke-width="5"/>
<path d="M310.181 164.249C304.681 151.249 289.581 121.449 273.181 106.249V126.249C275.014 126.082 282.581 134.149 298.181 167.749C300.981 167.749 307.348 165.416 310.181 164.249Z" stroke="black" stroke-width="5"/>
<path d="M342.681 152.749C334.514 133.249 314.681 93.149 294.681 78.749L283.181 81.749C294.014 91.4157 318.181 119.649 328.181 155.249L342.681 152.749Z" stroke="black" stroke-width="5"/>
<path d="M375.181 144.249C369.014 127.416 347.681 89.249 328.181 73.249L321.181 78.749C328.348 85.249 347.181 107.949 365.181 146.749L375.181 144.249Z" stroke="black" stroke-width="5"/>
<path d="M413.181 139.249C405.181 111.749 378.881 51.849 335.681 20.249L328.181 32.249C342.514 43.4157 380.681 76.749 398.681 141.249L413.181 139.249Z" stroke="black" stroke-width="5"/>
<path d="M460.681 137.249C445.181 95.749 392.181 12.249 375.181 7.74902H362.181C380.181 30.249 422.681 83.749 445.681 137.249H460.681Z" stroke="black" stroke-width="5"/>
<path d="M220.688 447.642C216.641 451.475 209.183 458.749 203.683 464.249L195.183 458.749C200.282 452.486 207.935 444.401 210.683 443.249C213.256 443.557 219.592 446.806 220.688 447.642Z" fill="#F7C143"/>
<path d="M248.183 462.249C243.834 468.601 225.681 490.588 214.183 497.248L217.183 479.754C218.352 479.982 225.053 474.061 237.183 457.749C238.984 457.964 249.158 460.824 248.183 462.249Z" fill="#F7C143"/>
<path d="M277.787 471.874C271.318 481.409 242.947 514.107 229.183 520.073L217.183 514.749C224.755 510.544 253.183 486.685 265.026 469.455L277.787 471.874Z" fill="#F7C143"/>
<path d="M306.183 480.749C301.166 489.048 283.686 507.91 270.144 514.749L255.183 514.749C260.198 511.913 281.685 496.086 295.683 477.249L306.183 480.749Z" fill="#F7C143"/>
<path d="M340.183 487.249C333.322 500.966 306.183 528.749 275.683 545.749L273.183 536.749C277.787 529.249 311.183 510.249 327.831 484.569L340.183 487.249Z" fill="#F7C143"/>
<path d="M380.683 497.248C368.125 517.685 308.898 564.212 297.681 565.249L289.181 561.749C302.181 550.249 350.552 520.363 368.683 494.248L380.683 497.248Z" fill="#F7C143"/>
<path d="M220.688 447.642C216.641 451.475 209.183 458.749 203.683 464.249L195.183 458.749C200.282 452.486 207.935 444.401 210.683 443.249C213.256 443.557 219.592 446.806 220.688 447.642Z" stroke="black" stroke-width="5"/>
<path d="M248.183 462.249C243.834 468.601 225.681 490.588 214.183 497.248L217.183 479.754C218.352 479.982 225.053 474.061 237.183 457.749C238.984 457.964 249.158 460.824 248.183 462.249Z" stroke="black" stroke-width="5"/>
<path d="M277.787 471.874C271.318 481.409 242.947 514.107 229.183 520.073L217.183 514.749C224.755 510.544 253.183 486.685 265.026 469.455L277.787 471.874Z" stroke="black" stroke-width="5"/>
<path d="M306.183 480.749C301.166 489.048 283.686 507.91 270.144 514.749L255.183 514.749C260.198 511.913 281.685 496.086 295.683 477.249L306.183 480.749Z" stroke="black" stroke-width="5"/>
<path d="M340.183 487.249C333.322 500.966 306.183 528.749 275.683 545.749L273.183 536.749C277.787 529.249 311.183 510.249 327.831 484.569L340.183 487.249Z" stroke="black" stroke-width="5"/>
<path d="M380.683 497.248C368.125 517.685 308.898 564.212 297.681 565.249L289.181 561.749C302.181 550.249 350.552 520.363 368.683 494.248L380.683 497.248Z" stroke="black" stroke-width="5"/>
<path d="M480.681 365.749L472.681 355.249C453.348 366.749 412.681 388.249 401.181 388.249V402.749C415.848 397.916 452.281 387.349 480.681 365.749Z" fill="#F7C143"/>
<path d="M448.681 310.749L445.681 298.249C414.681 296.749 351.881 289.549 348.681 284.749V298.249C348.681 301.049 414.181 314.749 448.681 310.749Z" fill="#F7C143"/>
<path d="M458.641 334.335C406.974 336.169 302.241 337.035 296.641 325.835L295.681 345.335C341.848 349.502 440.481 355.335 465.681 345.335L458.641 334.335Z" fill="#F7C143"/>
<path d="M348.681 284.749C351.881 289.549 414.681 296.749 445.681 298.249L448.681 310.749C414.181 314.749 348.681 301.049 348.681 298.249M348.681 284.749C348.681 288.249 348.681 295.449 348.681 298.249M348.681 284.749V298.249M458.641 334.335C406.974 336.169 302.241 337.035 296.641 325.835L295.681 345.335C341.848 349.502 440.481 355.335 465.681 345.335L458.641 334.335ZM480.681 365.749L472.681 355.249C453.348 366.749 412.681 388.249 401.181 388.249V402.749C415.848 397.916 452.281 387.349 480.681 365.749Z" stroke="black" stroke-width="5"/>
<path d="M278.181 228.287C278.181 244.346 290.967 249.749 305.223 249.749C319.479 249.749 337.181 244.346 337.181 228.287C337.181 212.229 319.479 204.749 305.223 204.749C290.967 204.749 278.181 212.229 278.181 228.287Z" fill="#E87185"/>
<path d="M236.181 274.749C236.181 286.347 246.583 290.249 258.181 290.249C269.779 290.249 284.181 286.347 284.181 274.749C284.181 263.151 269.779 257.749 258.181 257.749C246.583 257.749 236.181 263.151 236.181 274.749Z" fill="#E87185"/>
<path d="M219.181 240.303C219.181 248.868 226.766 251.749 235.223 251.749C243.68 251.749 254.181 248.868 254.181 240.303C254.181 231.738 243.68 227.749 235.223 227.749C226.766 227.749 219.181 231.738 219.181 240.303Z" fill="#E87185"/>
<path d="M137.181 388.249L130.181 377.749C103.181 396.082 49.6812 425.749 23.6812 431.749L34.6812 443.749C49.0145 441.416 89.5812 427.049 137.181 388.249Z" fill="#F7C143"/>
<path d="M121.681 344.749L124.181 359.749C99.3478 377.082 42.7812 411.449 15.1812 410.249V395.749C33.3478 390.416 80.0812 372.749 121.681 344.749Z" fill="#F7C143"/>
<path d="M124.181 312.249L128.181 301.249C88.3478 286.249 8.08115 252.749 5.68115 238.749V257.249C37.8478 275.582 106.581 312.249 124.181 312.249Z" fill="#F7C143"/>
<path d="M139.681 277.749L133.681 288.249C93.8478 268.582 14.3812 227.249 15.1812 219.249L24.6812 209.249C55.5145 228.582 121.681 269.349 139.681 277.749Z" fill="#F7C143"/>
<path d="M137.181 388.249L130.181 377.749C103.181 396.082 49.6812 425.749 23.6812 431.749L34.6812 443.749C49.0145 441.416 89.5812 427.049 137.181 388.249Z" stroke="black" stroke-width="5"/>
<path d="M121.681 344.749L124.181 359.749C99.3478 377.082 42.7812 411.449 15.1812 410.249V395.749C33.3478 390.416 80.0812 372.749 121.681 344.749Z" stroke="black" stroke-width="5"/>
<path d="M124.181 312.249L128.181 301.249C88.3478 286.249 8.08115 252.749 5.68115 238.749V257.249C37.8478 275.582 106.581 312.249 124.181 312.249Z" stroke="black" stroke-width="5"/>
<path d="M139.681 277.749L133.681 288.249C93.8478 268.582 14.3812 227.249 15.1812 219.249L24.6812 209.249C55.5145 228.582 121.681 269.349 139.681 277.749Z" stroke="black" stroke-width="5"/>
</svg>
