<svg width="711" height="575" viewBox="0 0 711 575" fill="none" xmlns="http://www.w3.org/2000/svg">
<path fill-rule="evenodd" clip-rule="evenodd" d="M202.661 146.43C83.8606 174.03 20.6606 280.93 3.91064 330.93C16.1606 336.18 53.7106 343.53 105.911 330.93C94.4106 344.18 60.9106 373.68 25.6606 373.68C118.061 467.28 243.411 489.43 296.411 495.18C356.411 501.689 488.411 456.48 521.411 430.68L562.661 402.18C610.061 351.133 582.411 292.41 562.661 269.43C534.161 227.43 498.161 209.43 455.411 187.68C417.161 161.43 285.161 123.93 202.661 146.43ZM224.411 370.68C255.611 334.08 262.911 305.93 262.661 296.43C275.411 285.18 333.911 272.43 351.161 272.43C369.911 281.249 361.411 284.249 361.411 296.43C419.911 313.68 411.911 317.43 417.161 330.93C419.561 389.13 344.661 394.18 308.411 389.43C315.011 478.83 255.161 414.18 224.411 370.68Z" fill="#F4B8AE"/>
<path d="M325.661 6.17976C265.061 20.5798 218.411 105.68 202.661 146.43C285.161 123.93 417.161 161.43 455.411 187.68C502.211 142.68 461.911 130.93 435.911 130.68C456.161 45.1799 372.911 83.4298 379.661 79.6798C386.411 75.9298 401.411 -11.8202 325.661 6.17976Z" fill="#E87185"/>
<path d="M492.911 468.18C522.911 465.18 524.411 441.93 521.411 430.68C488.411 456.48 356.411 501.689 296.411 495.18C423.611 610.38 443.661 558.93 435.911 513.93C507.911 539.13 503.911 493.93 492.911 468.18Z" fill="#E87185"/>
<path d="M681.161 206.43C630.761 184.83 581.161 239.43 562.661 269.43C582.411 292.41 610.061 351.133 562.661 402.18C624.161 473.43 669.911 441.93 681.161 441.93C727.961 387.93 656.161 345.43 614.411 330.93C628.211 330.93 664.661 307.93 681.161 296.43C726.761 249.63 700.161 216.93 681.161 206.43Z" fill="#E87185"/>
<path d="M262.661 296.43C262.911 305.93 255.611 334.08 224.411 370.68C255.161 414.18 315.011 478.83 308.411 389.43C344.661 394.18 419.561 389.13 417.161 330.93C411.911 317.43 419.911 313.68 361.411 296.43C361.411 284.249 369.911 281.249 351.161 272.43C333.911 272.43 275.411 285.18 262.661 296.43Z" fill="#E87185"/>
<path d="M3.91064 330.93C14.1106 369.93 18.9106 370.68 25.6606 373.68C60.9106 373.68 94.4106 344.18 105.911 330.93C53.7106 343.53 16.1606 336.18 3.91064 330.93Z" fill="white"/>
<path d="M3.91064 330.93C20.6606 280.93 83.8606 174.03 202.661 146.43M3.91064 330.93C14.1106 369.93 18.9106 370.68 25.6606 373.68M3.91064 330.93C16.1606 336.18 53.7106 343.53 105.911 330.93C94.4106 344.18 60.9106 373.68 25.6606 373.68M202.661 146.43C218.411 105.68 265.061 20.5798 325.661 6.17976C401.411 -11.8202 386.411 75.9298 379.661 79.6798C372.911 83.4298 456.161 45.1799 435.911 130.68C461.911 130.93 502.211 142.68 455.411 187.68M202.661 146.43C285.161 123.93 417.161 161.43 455.411 187.68M455.411 187.68C498.161 209.43 534.161 227.43 562.661 269.43M562.661 269.43C581.161 239.43 630.761 184.83 681.161 206.43C700.161 216.93 726.761 249.63 681.161 296.43C664.661 307.93 628.211 330.93 614.411 330.93C656.161 345.43 727.961 387.93 681.161 441.93C669.911 441.93 624.161 473.43 562.661 402.18M562.661 269.43C582.411 292.41 610.061 351.133 562.661 402.18M562.661 402.18L521.411 430.68M521.411 430.68C524.411 441.93 522.911 465.18 492.911 468.18C503.911 493.93 507.911 539.13 435.911 513.93C443.661 558.93 423.611 610.38 296.411 495.18M521.411 430.68C488.411 456.48 356.411 501.689 296.411 495.18M296.411 495.18C243.411 489.43 118.061 467.28 25.6606 373.68M262.661 296.43C262.911 305.93 255.611 334.08 224.411 370.68C255.161 414.18 315.011 478.83 308.411 389.43C344.661 394.18 419.561 389.13 417.161 330.93C411.911 317.43 419.911 313.68 361.411 296.43C361.411 284.249 369.911 281.249 351.161 272.43C333.911 272.43 275.411 285.18 262.661 296.43Z" stroke="black" stroke-width="7.5"/>
<path d="M161.411 202.68C193.438 202.68 219.161 227.659 219.161 258.18C219.161 288.701 193.438 313.68 161.411 313.68C129.383 313.68 103.661 288.701 103.661 258.18C103.661 227.659 129.383 202.68 161.411 202.68Z" fill="white" stroke="black" stroke-width="7.5"/>
<circle cx="135.161" cy="262.68" r="35.25" fill="black"/>
<circle cx="117.161" cy="262.68" r="11.25" fill="#FFFCFC"/>
<path d="M431.411 175.749C436.911 167.582 449.411 148.449 455.411 137.249L465.911 139.249C459.244 152.249 445.911 176.949 441.911 179.749C437.911 179.749 433.244 177.082 431.411 175.749Z" fill="#F7C143"/>
<path d="M399.911 164.249C405.411 151.249 420.511 121.449 436.911 106.249V126.249C435.077 126.082 427.511 134.149 411.911 167.749C409.111 167.749 402.744 165.416 399.911 164.249Z" fill="#F7C143"/>
<path d="M367.411 152.749C375.577 133.249 395.411 93.149 415.411 78.749L426.911 81.749C416.077 91.4157 391.911 119.649 381.911 155.249L367.411 152.749Z" fill="#F7C143"/>
<path d="M334.911 144.249C341.077 127.416 362.411 89.249 381.911 73.249L388.911 78.749C381.744 85.249 362.911 107.949 344.911 146.749L334.911 144.249Z" fill="#F7C143"/>
<path d="M296.911 139.249C304.911 111.749 331.211 51.849 374.411 20.249L381.911 32.249C367.577 43.4157 329.411 76.749 311.411 141.249L296.911 139.249Z" fill="#F7C143"/>
<path d="M249.411 137.249C264.911 95.749 317.911 12.249 334.911 7.74902H347.911C329.911 30.249 287.411 83.749 264.411 137.249H249.411Z" fill="#F7C143"/>
<path d="M431.411 175.749C436.911 167.582 449.411 148.449 455.411 137.249L465.911 139.249C459.244 152.249 445.911 176.949 441.911 179.749C437.911 179.749 433.244 177.082 431.411 175.749Z" stroke="black" stroke-width="5"/>
<path d="M399.911 164.249C405.411 151.249 420.511 121.449 436.911 106.249V126.249C435.077 126.082 427.511 134.149 411.911 167.749C409.111 167.749 402.744 165.416 399.911 164.249Z" stroke="black" stroke-width="5"/>
<path d="M367.411 152.749C375.577 133.249 395.411 93.149 415.411 78.749L426.911 81.749C416.077 91.4157 391.911 119.649 381.911 155.249L367.411 152.749Z" stroke="black" stroke-width="5"/>
<path d="M334.911 144.249C341.077 127.416 362.411 89.249 381.911 73.249L388.911 78.749C381.744 85.249 362.911 107.949 344.911 146.749L334.911 144.249Z" stroke="black" stroke-width="5"/>
<path d="M296.911 139.249C304.911 111.749 331.211 51.849 374.411 20.249L381.911 32.249C367.577 43.4157 329.411 76.749 311.411 141.249L296.911 139.249Z" stroke="black" stroke-width="5"/>
<path d="M249.411 137.249C264.911 95.749 317.911 12.249 334.911 7.74902H347.911C329.911 30.249 287.411 83.749 264.411 137.249H249.411Z" stroke="black" stroke-width="5"/>
<path d="M489.403 447.642C493.451 451.475 500.909 458.749 506.409 464.249L514.909 458.749C509.81 452.486 502.157 444.401 499.409 443.249C496.836 443.557 490.5 446.806 489.403 447.642Z" fill="#F7C143"/>
<path d="M461.909 462.249C466.257 468.601 484.411 490.588 495.909 497.248L492.909 479.754C491.74 479.982 485.039 474.061 472.909 457.749C471.108 457.964 460.934 460.824 461.909 462.249Z" fill="#F7C143"/>
<path d="M432.305 471.874C438.774 481.409 467.145 514.107 480.909 520.073L492.909 514.749C485.337 510.544 456.909 486.685 445.066 469.455L432.305 471.874Z" fill="#F7C143"/>
<path d="M403.909 480.749C408.925 489.048 426.406 507.91 439.948 514.749L454.909 514.749C449.893 511.913 428.407 496.086 414.409 477.249L403.909 480.749Z" fill="#F7C143"/>
<path d="M369.909 487.249C376.77 500.966 403.909 528.749 434.409 545.749L436.909 536.749C432.305 529.249 398.909 510.249 382.261 484.569L369.909 487.249Z" fill="#F7C143"/>
<path d="M329.409 497.248C341.967 517.685 401.194 564.212 412.411 565.249L420.911 561.749C407.911 550.249 359.54 520.363 341.409 494.248L329.409 497.248Z" fill="#F7C143"/>
<path d="M489.403 447.642C493.451 451.475 500.909 458.749 506.409 464.249L514.909 458.749C509.81 452.486 502.157 444.401 499.409 443.249C496.836 443.557 490.5 446.806 489.403 447.642Z" stroke="black" stroke-width="5"/>
<path d="M461.909 462.249C466.257 468.601 484.411 490.588 495.909 497.248L492.909 479.754C491.74 479.982 485.039 474.061 472.909 457.749C471.108 457.964 460.934 460.824 461.909 462.249Z" stroke="black" stroke-width="5"/>
<path d="M432.305 471.874C438.774 481.409 467.145 514.107 480.909 520.073L492.909 514.749C485.337 510.544 456.909 486.685 445.066 469.455L432.305 471.874Z" stroke="black" stroke-width="5"/>
<path d="M403.909 480.749C408.925 489.048 426.406 507.91 439.948 514.749L454.909 514.749C449.893 511.913 428.407 496.086 414.409 477.249L403.909 480.749Z" stroke="black" stroke-width="5"/>
<path d="M369.909 487.249C376.77 500.966 403.909 528.749 434.409 545.749L436.909 536.749C432.305 529.249 398.909 510.249 382.261 484.569L369.909 487.249Z" stroke="black" stroke-width="5"/>
<path d="M329.409 497.248C341.967 517.685 401.194 564.212 412.411 565.249L420.911 561.749C407.911 550.249 359.54 520.363 341.409 494.248L329.409 497.248Z" stroke="black" stroke-width="5"/>
<path d="M229.411 365.749L237.411 355.249C256.744 366.749 297.411 388.249 308.911 388.249V402.749C294.244 397.916 257.811 387.349 229.411 365.749Z" fill="#F7C143"/>
<path d="M261.411 310.749L264.411 298.249C295.411 296.749 358.211 289.549 361.411 284.749V298.249C361.411 301.049 295.911 314.749 261.411 310.749Z" fill="#F7C143"/>
<path d="M251.451 334.335C303.117 336.169 407.851 337.035 413.451 325.835L414.411 345.335C368.244 349.502 269.611 355.335 244.411 345.335L251.451 334.335Z" fill="#F7C143"/>
<path d="M361.411 284.749C358.211 289.549 295.411 296.749 264.411 298.249L261.411 310.749C295.911 314.749 361.411 301.049 361.411 298.249M361.411 284.749C361.411 288.249 361.411 295.449 361.411 298.249M361.411 284.749V298.249M251.451 334.335C303.117 336.169 407.851 337.035 413.451 325.835L414.411 345.335C368.244 349.502 269.611 355.335 244.411 345.335L251.451 334.335ZM229.411 365.749L237.411 355.249C256.744 366.749 297.411 388.249 308.911 388.249V402.749C294.244 397.916 257.811 387.349 229.411 365.749Z" stroke="black" stroke-width="5"/>
<path d="M431.911 228.287C431.911 244.346 419.125 249.749 404.869 249.749C390.613 249.749 372.911 244.346 372.911 228.287C372.911 212.229 390.613 204.749 404.869 204.749C419.125 204.749 431.911 212.229 431.911 228.287Z" fill="#E87185"/>
<path d="M473.911 274.749C473.911 286.347 463.509 290.249 451.911 290.249C440.313 290.249 425.911 286.347 425.911 274.749C425.911 263.151 440.313 257.749 451.911 257.749C463.509 257.749 473.911 263.151 473.911 274.749Z" fill="#E87185"/>
<path d="M490.911 240.303C490.911 248.868 483.326 251.749 474.869 251.749C466.412 251.749 455.911 248.868 455.911 240.303C455.911 231.738 466.412 227.749 474.869 227.749C483.326 227.749 490.911 231.738 490.911 240.303Z" fill="#E87185"/>
<path d="M572.911 388.249L579.911 377.749C606.911 396.082 660.411 425.749 686.411 431.749L675.411 443.749C661.077 441.416 620.511 427.049 572.911 388.249Z" fill="#F7C143"/>
<path d="M588.411 344.749L585.911 359.749C610.744 377.082 667.311 411.449 694.911 410.249V395.749C676.744 390.416 630.011 372.749 588.411 344.749Z" fill="#F7C143"/>
<path d="M585.911 312.249L581.911 301.249C621.744 286.249 702.011 252.749 704.411 238.749V257.249C672.244 275.582 603.511 312.249 585.911 312.249Z" fill="#F7C143"/>
<path d="M570.411 277.749L576.411 288.249C616.244 268.582 695.711 227.249 694.911 219.249L685.411 209.249C654.577 228.582 588.411 269.349 570.411 277.749Z" fill="#F7C143"/>
<path d="M572.911 388.249L579.911 377.749C606.911 396.082 660.411 425.749 686.411 431.749L675.411 443.749C661.077 441.416 620.511 427.049 572.911 388.249Z" stroke="black" stroke-width="5"/>
<path d="M588.411 344.749L585.911 359.749C610.744 377.082 667.311 411.449 694.911 410.249V395.749C676.744 390.416 630.011 372.749 588.411 344.749Z" stroke="black" stroke-width="5"/>
<path d="M585.911 312.249L581.911 301.249C621.744 286.249 702.011 252.749 704.411 238.749V257.249C672.244 275.582 603.511 312.249 585.911 312.249Z" stroke="black" stroke-width="5"/>
<path d="M570.411 277.749L576.411 288.249C616.244 268.582 695.711 227.249 694.911 219.249L685.411 209.249C654.577 228.582 588.411 269.349 570.411 277.749Z" stroke="black" stroke-width="5"/>
</svg>
