<svg width="686" height="411" viewBox="0 0 686 411" fill="none" xmlns="http://www.w3.org/2000/svg">
<g filter="url(#filter0_d_2214_7442)">
<path d="M317.006 49.2576V107.139H610.647C673.893 104.333 684.685 152.743 682.175 177.299V249.213C676.151 285.696 640.764 298.325 623.823 300.079H317.006V357.96C292.913 426.717 239.204 407.657 215.362 389.532L42.1891 257.983C-24.0683 213.081 9.56234 170.283 34.6598 154.497L219.126 14.1778C285.384 -18.0956 311.987 24.1171 317.006 49.2576Z" fill="url(#paint0_linear_2214_7442)" shape-rendering="crispEdges"/>
<path d="M317.006 49.2576V107.139H610.647C673.893 104.333 684.685 152.743 682.175 177.299V249.213C676.151 285.696 640.764 298.325 623.823 300.079H317.006V357.96C292.913 426.717 239.204 407.657 215.362 389.532L42.1891 257.983C-24.0683 213.081 9.56234 170.283 34.6598 154.497L219.126 14.1778C285.384 -18.0956 311.987 24.1171 317.006 49.2576Z" stroke="black" stroke-width="5" shape-rendering="crispEdges"/>
</g>
<defs>
<filter id="filter0_d_2214_7442" x="0" y="0" width="686.002" height="411" filterUnits="userSpaceOnUse" color-interpolation-filters="sRGB">
<feFlood flood-opacity="0" result="BackgroundImageFix"/>
<feColorMatrix in="SourceAlpha" type="matrix" values="0 0 0 0 0 0 0 0 0 0 0 0 0 0 0 0 0 0 127 0" result="hardAlpha"/>
<feOffset dy="1"/>
<feGaussianBlur stdDeviation="0.5"/>
<feComposite in2="hardAlpha" operator="out"/>
<feColorMatrix type="matrix" values="0 0 0 0 0 0 0 0 0 0 0 0 0 0 0 0 0 0 0.25 0"/>
<feBlend mode="normal" in2="BackgroundImageFix" result="effect1_dropShadow_2214_7442"/>
<feBlend mode="normal" in="SourceGraphic" in2="effect1_dropShadow_2214_7442" result="shape"/>
</filter>
<linearGradient id="paint0_linear_2214_7442" x1="4.54287" y1="205.363" x2="682.175" y2="205.363" gradientUnits="userSpaceOnUse">
<stop stop-color="#E53F28" stop-opacity="0.42"/>
<stop offset="0.0001" stop-color="#E53F28"/>
</linearGradient>
</defs>
</svg>
