<svg width="340" height="362" viewBox="0 0 340 362" fill="none" xmlns="http://www.w3.org/2000/svg">
<path d="M183.056 301.652L48.0557 292.652C40.5557 289.652 30.0557 281.402 48.0557 272.402L183.056 301.652Z" fill="#F8D3FC"/>
<path d="M183.056 277.652L27.8057 231.902C20.3057 226.902 11.3059 215.552 35.3059 210.152L183.056 277.652Z" fill="#F8D3FC"/>
<path d="M201.806 252.902L35.3059 153.152C30.0558 146.652 25.2557 133.652 48.0557 133.652L201.806 252.902Z" fill="#F8D3FC"/>
<path d="M65.3059 80.4019L222.056 231.902L76.5557 68.4019C70.9232 67.0423 67.3917 67.2178 65.3099 68.2721C65.2165 68.3194 65.1259 68.3685 65.0383 68.4193C61.0457 70.7332 62.9897 76.5967 65.3059 80.4019Z" fill="#F8D3FC"/>
<path d="M244.556 210.152L127.556 35.4019C126.806 28.4019 128.906 16.5019 143.306 24.9019L244.556 210.152Z" fill="#F8D3FC"/>
<path d="M207.806 30.1519C206.306 23.1519 207.056 12.302 222.056 24.9019L269.133 200.835L207.806 30.1519Z" fill="#F8D3FC"/>
<path fill-rule="evenodd" clip-rule="evenodd" d="M330.056 239.999C261.155 265.518 244.556 286.499 237.056 351C235.474 364.606 222.015 355.545 207.574 345.822C198.985 340.04 190.048 334.023 183.056 332.402C172.358 332.402 159.476 331.975 145.961 331.527C116.836 330.562 84.7724 329.499 65.3059 332.402C31.7061 312.002 31.306 287.402 35.3059 277.652C-0.0939134 259.052 10.5558 224.902 20.3056 210.152C-15.6946 172.952 15.3057 143.652 35.3059 133.652C11.4126 84.6708 45.0047 69.7842 65.0383 68.4193C61.0457 70.7332 62.9897 76.5967 65.3059 80.4019L222.056 231.902L76.5557 68.4019C70.9232 67.0423 67.3917 67.2178 65.3099 68.2721C67.1758 9.00499 115.073 11.1578 138.806 19.6515C170.606 -9.14857 203.056 7.65149 215.306 19.6515C242.306 2.85143 267.056 26.6516 276.056 40.6517C307.856 28.6517 316.306 45.6517 316.556 55.6517V195.152C314.832 205.782 322.498 214.795 328.733 222.126C335.518 230.105 340.609 236.091 330.056 239.999ZM207.806 30.1519C206.306 23.1519 207.056 12.302 222.056 24.9019L269.133 200.835L207.806 30.1519ZM244.556 210.152L127.556 35.4019C126.806 28.4019 128.906 16.5019 143.306 24.9019L244.556 210.152ZM201.806 252.902L35.3059 153.152C30.0558 146.652 25.2557 133.652 48.0557 133.652L201.806 252.902ZM183.056 277.652L27.8057 231.902C20.3057 226.902 11.3059 215.552 35.3059 210.152L183.056 277.652ZM183.056 301.652L48.0557 292.652C40.5557 289.652 30.0557 281.402 48.0557 272.402L183.056 301.652ZM276.056 55.6517L289.556 191.249V55.6517C278.756 31.7737 276.056 45.7025 276.056 55.6517Z" fill="#EA99F7"/>
<path d="M289.556 191.249L276.056 55.6517C276.056 45.7025 278.756 31.7737 289.556 55.6517V191.249Z" fill="#F8D3FC"/>
<path d="M65.3099 68.2721C67.3917 67.2178 70.9232 67.0423 76.5557 68.4019L222.056 231.902L65.3059 80.4019C62.9897 76.5967 61.0457 70.7332 65.0383 68.4193M65.3099 68.2721C65.2165 68.3194 65.1259 68.3685 65.0383 68.4193M65.3099 68.2721C67.1758 9.00499 115.073 11.1578 138.806 19.6515C170.606 -9.14857 203.056 7.65149 215.306 19.6515C242.306 2.85143 267.056 26.6516 276.056 40.6517C307.856 28.6517 316.306 45.6517 316.556 55.6517V195.152C314.832 205.782 322.498 214.795 328.733 222.126C335.518 230.105 340.609 236.091 330.056 239.999C261.155 265.518 244.556 286.499 237.056 351C235.474 364.606 222.015 355.545 207.574 345.822C198.985 340.04 190.048 334.023 183.056 332.402C172.358 332.402 159.476 331.975 145.961 331.527C116.836 330.562 84.7724 329.499 65.3059 332.402C31.7061 312.002 31.306 287.402 35.3059 277.652C-0.0939134 259.052 10.5558 224.902 20.3056 210.152C-15.6946 172.952 15.3057 143.652 35.3059 133.652C11.4126 84.6708 45.0047 69.7842 65.0383 68.4193M207.806 30.1519C206.306 23.1519 207.056 12.302 222.056 24.9019L269.133 200.835L207.806 30.1519ZM244.556 210.152L127.556 35.4019C126.806 28.4019 128.906 16.5019 143.306 24.9019L244.556 210.152ZM201.806 252.902L35.3059 153.152C30.0558 146.652 25.2557 133.652 48.0557 133.652L201.806 252.902ZM183.056 277.652L27.8057 231.902C20.3057 226.902 11.3059 215.552 35.3059 210.152L183.056 277.652ZM183.056 301.652L48.0557 292.652C40.5557 289.652 30.0557 281.402 48.0557 272.402L183.056 301.652ZM289.556 191.249L276.056 55.6517C276.056 45.7025 278.756 31.7737 289.556 55.6517V191.249Z" stroke="#682274" stroke-width="7.5"/>
</svg>
