<svg width="733" height="698" viewBox="0 0 733 698" fill="none" xmlns="http://www.w3.org/2000/svg">
<path d="M155.24 313.951C180.243 172.95 209.241 156.95 234.24 138.951C376.241 75.9503 544.742 173.787 584 232C671.702 362.05 640.5 315.5 677.5 358C714.5 400.5 748.342 389.834 718.5 411.501C682 438.001 664.328 437.814 610.241 490.951C554.258 545.95 441.258 635.95 275.24 616.951C178.455 605.875 131.031 450.475 155.24 313.951Z" fill="#F8C2E2" stroke="black" stroke-width="5"/>
<path d="M558.258 536.95C562.258 560.95 566.858 614.35 553.258 635.95M564.258 531.95C569.258 557.283 575.458 614.15 560.258 638.95" stroke="black" stroke-width="5"/>
<path d="M530.258 556.95C536.924 567.95 543.258 599.95 552.258 634.95C559.95 664.863 605.258 567.95 592.258 508.95C592.258 508.95 573.562 524.437 561.258 533.95C549.332 543.17 530.258 556.95 530.258 556.95Z" fill="#9BD0E3" stroke="black" stroke-width="5"/>
<path d="M156.259 306.946C122.926 278.613 41.7229 228.438 21.2593 274.946C-22.7414 374.948 23.2588 471.195 32.2593 477.947C41.2598 484.699 62.2592 501.947 152.259 431.947C152.259 431.947 148.45 393.565 149.259 368.948C150.059 344.594 156.259 306.946 156.259 306.946Z" fill="#9BD0E3" stroke="black" stroke-width="5"/>
<path d="M476.261 584.95C467.257 587.949 435.928 601.95 424.261 604.95L397.261 505.95L391.761 433.45C391.761 433.45 387.224 389.327 386.261 360.949C385.48 337.922 386.261 324.99 386.261 301.949V242.949C386.261 219.908 397.261 125.95 397.261 125.95C405.261 125.951 454.788 137.862 454.261 141.95C411.257 475.951 485.265 581.95 476.261 584.95Z" fill="#EFA1D0" stroke="black" stroke-width="5"/>
<path d="M341.258 617.949C331.258 619.949 299.258 617.949 287.258 617.949C287.258 617.949 267.196 553.32 259.727 513.948C252.322 474.909 250.502 421.269 248.772 370.251L248.727 368.948C246.983 317.542 246.564 296.979 248.727 250.948C250.882 205.106 259.258 129.949 259.258 129.949C267.788 126.949 317.784 115.861 317.258 119.949C274.254 453.95 351.258 615.949 341.258 617.949Z" fill="#EFA1D0" stroke="black" stroke-width="5"/>
<circle cx="563.258" cy="371.95" r="60" fill="white" stroke="black" stroke-width="5"/>
<circle cx="583.5" cy="367.5" r="36" fill="#100A0A"/>
<path d="M365.26 377.949C387.66 369.949 439.26 403.949 462.26 421.949C454.26 465.949 471.259 492.949 470.259 493.949C469.259 494.949 354.436 622.409 329.26 545.949C302.259 463.949 337.26 387.949 365.26 377.949Z" fill="#9BD0E3" stroke="black" stroke-width="5"/>
<path d="M460.258 436.95C440.591 438.283 387.858 435.55 334.258 413.95L338.258 406.95C338.258 406.95 374.401 419.056 398.258 423.95C422.173 428.855 460.258 431.95 460.258 431.95V436.95Z" fill="#F8C2E2"/>
<path d="M465.258 480.95C434.591 502.283 363.458 542.15 324.258 530.95L322.258 520.95C322.258 520.95 346.258 525.95 377.258 514.95C412.316 502.51 462.258 471.95 462.258 471.95L465.258 480.95Z" fill="#F8C2E2"/>
<path d="M460.258 457.95C425.591 467.616 349.258 482.95 321.258 466.95L322.258 457.95C322.258 457.95 345.258 465.95 387.258 461.95C415.958 459.216 460.258 450.95 460.258 450.95V457.95Z" fill="#F8C2E2"/>
<path d="M460.258 436.95C440.591 438.283 387.858 435.55 334.258 413.95L338.258 406.95C338.258 406.95 374.401 419.056 398.258 423.95C422.173 428.855 460.258 431.95 460.258 431.95V436.95Z" stroke="black" stroke-width="5"/>
<path d="M465.258 480.95C434.591 502.283 363.458 542.15 324.258 530.95L322.258 520.95C322.258 520.95 346.258 525.95 377.258 514.95C412.316 502.51 462.258 471.95 462.258 471.95L465.258 480.95Z" stroke="black" stroke-width="5"/>
<path d="M460.258 457.95C425.591 467.616 349.258 482.95 321.258 466.95L322.258 457.95C322.258 457.95 345.258 465.95 387.258 461.95C415.958 459.216 460.258 450.95 460.258 450.95V457.95Z" stroke="black" stroke-width="5"/>
<path d="M547.262 193.95C528.26 105.951 388.259 -43.05 194.262 15.9499C90.2605 47.5797 163.259 274.95 163.259 274.95C163.259 274.95 175.982 175.202 227.259 145.95C376.259 60.9502 547.262 193.95 547.262 193.95Z" fill="#9BD0E3"/>
<path d="M160.261 477.95C142.26 540.284 135.661 669.35 249.261 690.95C391.261 717.95 517.257 587.95 530.259 556.95C530.259 556.95 386.322 654.909 246.259 608.95C182.259 587.95 160.261 477.95 160.261 477.95Z" fill="#9BD0E3"/>
<path d="M547.262 193.95C528.26 105.951 388.259 -43.05 194.262 15.9499C90.2605 47.5797 163.259 274.95 163.259 274.95C163.259 274.95 175.982 175.202 227.259 145.95C376.259 60.9502 547.262 193.95 547.262 193.95Z" stroke="black" stroke-width="5"/>
<path d="M160.261 477.95C142.26 540.284 135.661 669.35 249.261 690.95C391.261 717.95 517.257 587.95 530.259 556.95C530.259 556.95 386.322 654.909 246.259 608.95C182.259 587.95 160.261 477.95 160.261 477.95Z" stroke="black" stroke-width="5"/>
<path d="M494.258 98.9497L481.258 86.9497C481.258 86.9497 492.411 115.071 496.258 133.95C498.54 145.152 500.258 162.95 500.258 162.95L508.258 166.95C508.258 166.95 505.947 146.098 503.258 132.95C500.506 119.493 494.258 98.9497 494.258 98.9497Z" stroke="black" stroke-width="5"/>
<path d="M494.258 98.9497L481.258 86.9497C481.258 86.9497 492.411 115.071 496.258 133.95C498.54 145.152 500.258 162.95 500.258 162.95L508.258 166.95C508.258 166.95 505.947 146.098 503.258 132.95C500.506 119.493 494.258 98.9497 494.258 98.9497Z" fill="#F8C2E2" stroke="black" stroke-width="5"/>
<circle cx="602.258" cy="356.95" r="7" fill="white"/>
<path d="M423.258 130.95L432.258 132.95C432.258 132.95 430.273 102.598 426.258 82.9497C422.349 63.8188 412.258 34.9497 412.258 34.9497L401.258 29.9497C401.258 29.9497 412.928 60.5299 417.258 80.9497C421.337 100.188 423.258 130.95 423.258 130.95Z" fill="#F8C2E2" stroke="black" stroke-width="5"/>
<path d="M371.258 120.95L361.258 119.95C361.258 119.95 355.429 84.3652 347.258 62.9497C338.036 38.7802 315.258 4.94971 315.258 4.94971L326.258 5.94971C326.258 5.94971 347.289 39.4482 356.258 62.9497C364.599 84.8077 371.258 120.95 371.258 120.95Z" fill="#F8C2E2"/>
<path d="M233.258 6.94971L241.258 5.94971C241.258 5.94971 257.258 39.9497 267.258 62.9497C277.423 86.3305 288.258 121.95 288.258 121.95L280.258 123.95C280.258 123.95 268.361 87.6494 259.258 64.9497C250.019 41.9111 233.258 6.94971 233.258 6.94971Z" fill="#F8C2E2"/>
<path d="M371.258 120.95L361.258 119.95C361.258 119.95 355.429 84.3652 347.258 62.9497C338.036 38.7802 315.258 4.94971 315.258 4.94971L326.258 5.94971C326.258 5.94971 347.289 39.4482 356.258 62.9497C364.599 84.8077 371.258 120.95 371.258 120.95Z" stroke="black" stroke-width="5"/>
<path d="M233.258 6.94971L241.258 5.94971C241.258 5.94971 257.258 39.9497 267.258 62.9497C277.423 86.3305 288.258 121.95 288.258 121.95L280.258 123.95C280.258 123.95 268.361 87.6494 259.258 64.9497C250.019 41.9111 233.258 6.94971 233.258 6.94971Z" stroke="black" stroke-width="5"/>
<path d="M160.825 39.6294L165.825 34.6294C165.825 34.6294 186.172 55.708 205.258 81.9514C221.258 103.951 240.258 136.951 240.258 136.951L233.258 138.951C233.258 138.951 214.652 105.631 200.258 85.9514C185.704 66.0531 160.825 39.6294 160.825 39.6294Z" fill="#F8C2E2"/>
<path d="M138.258 128.951V119.951C138.258 119.951 154.461 132.109 166.258 143.951C179.267 157.011 194.258 181.951 194.258 181.951L189.258 189.951C189.258 189.951 174.098 164.614 161.258 150.951C151.018 140.056 138.258 128.951 138.258 128.951Z" fill="#F8C2E2"/>
<path d="M13.2578 295.951L16.2578 287.951C16.2578 287.951 58.6803 288.736 85.2578 293.951C113.264 299.447 155.258 315.951 155.258 315.951L153.258 324.951C153.258 324.951 112.704 307.659 85.2578 301.951C57.6336 296.207 13.2578 295.951 13.2578 295.951Z" fill="#F8C2E2"/>
<path d="M3.25781 357.951V350.951C3.25781 350.951 47.7316 354.362 76.2578 354.951C105.15 355.549 150.258 353.951 150.258 353.951L149.258 360.951C149.258 360.951 104.763 362.536 76.2578 361.951C47.7128 361.366 3.25781 357.951 3.25781 357.951Z" fill="#F8C2E2"/>
<path d="M149.258 391.951V383.951C149.258 383.951 106.956 395.787 79.2578 398.951C50.5353 402.233 5.25781 399.951 5.25781 399.951L6.25781 407.951C6.25781 407.951 52.0671 409.384 81.2578 406.951C117.258 403.951 149.258 391.951 149.258 391.951Z" fill="#F8C2E2"/>
<path d="M149.258 415.951V406.951C149.258 406.951 110.859 426.076 85.2578 435.951C60.3695 445.552 20.2578 456.951 20.2578 456.951L24.2578 464.951C24.2578 464.951 63.7695 453.556 88.2578 443.951C112.66 434.38 149.258 415.951 149.258 415.951Z" fill="#F8C2E2"/>
<path d="M160.825 39.6294L165.825 34.6294C165.825 34.6294 186.172 55.708 205.258 81.9514C221.258 103.951 240.258 136.951 240.258 136.951L233.258 138.951C233.258 138.951 214.652 105.631 200.258 85.9514C185.704 66.0531 160.825 39.6294 160.825 39.6294Z" stroke="black" stroke-width="5"/>
<path d="M138.258 128.951V119.951C138.258 119.951 154.461 132.109 166.258 143.951C179.267 157.011 194.258 181.951 194.258 181.951L189.258 189.951C189.258 189.951 174.098 164.614 161.258 150.951C151.018 140.056 138.258 128.951 138.258 128.951Z" stroke="black" stroke-width="5"/>
<path d="M13.2578 295.951L16.2578 287.951C16.2578 287.951 58.6803 288.736 85.2578 293.951C113.264 299.447 155.258 315.951 155.258 315.951L153.258 324.951C153.258 324.951 112.704 307.659 85.2578 301.951C57.6336 296.207 13.2578 295.951 13.2578 295.951Z" stroke="black" stroke-width="5"/>
<path d="M3.25781 357.951V350.951C3.25781 350.951 47.7316 354.362 76.2578 354.951C105.15 355.549 150.258 353.951 150.258 353.951L149.258 360.951C149.258 360.951 104.763 362.536 76.2578 361.951C47.7128 361.366 3.25781 357.951 3.25781 357.951Z" stroke="black" stroke-width="5"/>
<path d="M149.258 391.951V383.951C149.258 383.951 106.956 395.787 79.2578 398.951C50.5353 402.233 5.25781 399.951 5.25781 399.951L6.25781 407.951C6.25781 407.951 52.0671 409.384 81.2578 406.951C117.258 403.951 149.258 391.951 149.258 391.951Z" stroke="black" stroke-width="5"/>
<path d="M149.258 415.951V406.951C149.258 406.951 110.859 426.076 85.2578 435.951C60.3695 445.552 20.2578 456.951 20.2578 456.951L24.2578 464.951C24.2578 464.951 63.7695 453.556 88.2578 443.951C112.66 434.38 149.258 415.951 149.258 415.951Z" stroke="black" stroke-width="5"/>
<path d="M188.258 552.95L192.258 558.95C192.258 558.95 181.258 566.95 173.258 571.95C165.555 576.764 152.258 581.95 152.258 581.95L151.258 574.95C151.258 574.95 162.336 569.042 169.258 564.95C176.812 560.483 188.258 552.95 188.258 552.95Z" fill="#F8C2E2" stroke="black" stroke-width="5"/>
<path d="M234.258 602.95L228.258 598.95C228.258 598.95 216.223 617.219 207.258 627.95C198.226 638.759 182.258 653.95 182.258 653.95L187.258 658.95C187.258 658.95 203.883 643.192 213.258 631.95C222.213 621.211 234.258 602.95 234.258 602.95Z" fill="#F8C2E2"/>
<path d="M281.258 617.95L290.258 618.95C290.258 618.95 276.084 641.204 266.258 654.95C256.538 668.548 240.258 688.95 240.258 688.95L232.258 685.95C232.258 685.95 248.668 666.262 258.258 652.95C267.818 639.679 281.258 617.95 281.258 617.95Z" fill="#F8C2E2"/>
<path d="M328.258 619.95H338.258C338.258 619.95 328.219 643.258 321.258 657.95C314.527 672.154 303.258 693.95 303.258 693.95L294.258 694.95C294.258 694.95 306.444 672.078 313.258 656.95C319.661 642.733 328.258 619.95 328.258 619.95Z" fill="#F8C2E2"/>
<path d="M357.706 683.86L368.706 679.86C368.706 679.86 377.542 661.099 382.706 648.86C388.569 634.962 396.706 612.86 396.706 612.86L387.258 614.95C387.258 614.95 380.04 635.829 374.706 648.86C369.146 662.441 357.706 683.86 357.706 683.86Z" fill="#F8C2E2"/>
<path d="M427.258 651.95L435.258 646.95C435.258 646.95 438.28 631.955 439.258 622.95C440.231 613.986 441.258 599.95 441.258 599.95L434.258 602.95C434.258 602.95 433.526 616.981 432.258 625.95C430.82 636.122 427.258 651.95 427.258 651.95Z" fill="#F8C2E2"/>
<path d="M479.258 584.95L487.258 580.95C487.258 580.95 485.729 590.765 484.258 596.95C482.656 603.682 479.258 613.95 479.258 613.95L470.258 620.95C470.258 620.95 474.307 608.253 476.258 599.95C477.624 594.134 479.258 584.95 479.258 584.95Z" fill="#F8C2E2"/>
<path d="M558.258 536.95L564.258 531.95C564.258 531.95 567.083 547.132 568.258 556.95C569.421 566.675 570.128 572.156 570.258 581.95C570.414 593.69 570.171 600.365 568.258 611.95C566.483 622.697 561.258 638.95 561.258 638.95C561.258 638.95 558.445 640.631 556.258 639.95C554.393 639.369 553.258 636.95 553.258 636.95C553.258 636.95 559.488 622.047 561.258 611.95C563.012 601.941 562.273 596.111 562.258 585.95C562.243 576.179 562.067 570.687 561.258 560.95C560.476 551.537 558.258 536.95 558.258 536.95Z" fill="#F8C2E2"/>
<path d="M234.258 602.95L228.258 598.95C228.258 598.95 216.223 617.219 207.258 627.95C198.226 638.759 182.258 653.95 182.258 653.95L187.258 658.95C187.258 658.95 203.883 643.192 213.258 631.95C222.213 621.211 234.258 602.95 234.258 602.95Z" stroke="black" stroke-width="5"/>
<path d="M281.258 617.95L290.258 618.95C290.258 618.95 276.084 641.204 266.258 654.95C256.538 668.548 240.258 688.95 240.258 688.95L232.258 685.95C232.258 685.95 248.668 666.262 258.258 652.95C267.818 639.679 281.258 617.95 281.258 617.95Z" stroke="black" stroke-width="5"/>
<path d="M328.258 619.95H338.258C338.258 619.95 328.219 643.258 321.258 657.95C314.527 672.154 303.258 693.95 303.258 693.95L294.258 694.95C294.258 694.95 306.444 672.078 313.258 656.95C319.661 642.733 328.258 619.95 328.258 619.95Z" stroke="black" stroke-width="5"/>
<path d="M357.706 683.86L368.706 679.86C368.706 679.86 377.542 661.099 382.706 648.86C388.569 634.962 396.706 612.86 396.706 612.86L387.258 614.95C387.258 614.95 380.04 635.829 374.706 648.86C369.146 662.441 357.706 683.86 357.706 683.86Z" stroke="black" stroke-width="5"/>
<path d="M427.258 651.95L435.258 646.95C435.258 646.95 438.28 631.955 439.258 622.95C440.231 613.986 441.258 599.95 441.258 599.95L434.258 602.95C434.258 602.95 433.526 616.981 432.258 625.95C430.82 636.122 427.258 651.95 427.258 651.95Z" stroke="black" stroke-width="5"/>
<path d="M479.258 584.95L487.258 580.95C487.258 580.95 485.729 590.765 484.258 596.95C482.656 603.682 479.258 613.95 479.258 613.95L470.258 620.95C470.258 620.95 474.307 608.253 476.258 599.95C477.624 594.134 479.258 584.95 479.258 584.95Z" stroke="black" stroke-width="5"/>
<path d="M558.258 536.95L564.258 531.95C564.258 531.95 567.083 547.132 568.258 556.95C569.421 566.675 570.128 572.156 570.258 581.95C570.414 593.69 570.171 600.365 568.258 611.95C566.483 622.697 561.258 638.95 561.258 638.95C561.258 638.95 558.445 640.631 556.258 639.95C554.393 639.369 553.258 636.95 553.258 636.95C553.258 636.95 559.488 622.047 561.258 611.95C563.012 601.941 562.273 596.111 562.258 585.95C562.243 576.179 562.067 570.687 561.258 560.95C560.476 551.537 558.258 536.95 558.258 536.95Z" stroke="black" stroke-width="5"/>
<circle cx="602.5" cy="358.5" r="10" fill="white"/>
</svg>
