<svg width="1189" height="895" viewBox="0 0 1189 895" fill="none" xmlns="http://www.w3.org/2000/svg">
<path d="M98.7437 812.5H1100.74V723H98.7437V812.5Z" fill="#9D4E25"/>
<path d="M573 597.5C550.678 593.442 533.5 584.632 524.988 579.302H98.7437V723H1100.74V579.302L666.5 583C640.441 597.5 603.5 603.045 573 597.5Z" fill="#9D4E25"/>
<path d="M1100.74 487H712.744C709.626 532.937 694 567.698 666.5 583L1100.74 579.302V487Z" fill="#9D4E25"/>
<path d="M98.7437 345H1100.74C1098.17 321.611 1093.29 289.411 1085.9 253.5H107.58C99.7405 286.936 95.9558 318.515 98.7437 345Z" fill="#9D4E25"/>
<path d="M107.58 253.5H1085.9C1074.18 196.556 1056.11 130.279 1030.81 75H174.061C148.528 128.12 121.585 193.772 107.58 253.5Z" fill="#9D4E25"/>
<path d="M988.244 4H211.244C200.656 22.349 187.555 46.924 174.061 75H1030.81C1018.4 47.8887 1004.24 23.4227 988.244 4Z" fill="#9D4E25"/>
<path d="M471.5 487H98.7437V579.302H524.988C478 549.877 468.213 510.89 471.5 487Z" fill="#9D4E25"/>
<path fill-rule="evenodd" clip-rule="evenodd" d="M4.24401 424V891H1184.74V424C1184.74 216.4 1099.08 57.5 1056.24 4H988.244C1004.24 23.4227 1018.4 47.8887 1030.81 75C1056.11 130.279 1074.18 196.556 1085.9 253.5C1093.29 289.411 1098.17 321.611 1100.74 345H98.7437C95.9558 318.515 99.7405 286.936 107.58 253.5C121.585 193.772 148.528 128.12 174.061 75C187.555 46.924 200.656 22.349 211.244 4H127.244C22.044 163.6 1.41068 350.5 4.24401 424ZM1100.74 812.5H98.7437V723V579.302V487H471.5C468.213 510.89 478 549.877 524.988 579.302C533.5 584.632 550.678 593.442 573 597.5C603.5 603.045 640.441 597.5 666.5 583C694 567.698 709.626 532.937 712.744 487H1100.74V579.302V723V812.5Z" fill="#F7C143"/>
<path d="M211.244 4H127.244C22.044 163.6 1.41068 350.5 4.24401 424V891H1184.74V424C1184.74 216.4 1099.08 57.5 1056.24 4H988.244M211.244 4H988.244M211.244 4C200.656 22.349 187.555 46.924 174.061 75M988.244 4C1004.24 23.4227 1018.4 47.8887 1030.81 75M107.58 253.5C99.7405 286.936 95.9558 318.515 98.7437 345H1100.74C1098.17 321.611 1093.29 289.411 1085.9 253.5M107.58 253.5H1085.9M107.58 253.5C121.585 193.772 148.528 128.12 174.061 75M1085.9 253.5C1074.18 196.556 1056.11 130.279 1030.81 75M174.061 75H1030.81M98.7437 723V812.5H1100.74V723M98.7437 723H1100.74M98.7437 723V579.302M1100.74 723V579.302M666.5 583C640.441 597.5 603.5 603.045 573 597.5C550.678 593.442 533.5 584.632 524.988 579.302M666.5 583C694 567.698 709.626 532.937 712.744 487H1100.74V579.302M666.5 583L1100.74 579.302M524.988 579.302H98.7437M524.988 579.302C478 549.877 468.213 510.89 471.5 487H98.7437V579.302" stroke="black" stroke-width="8"/>
<path d="M609.395 559.304L593.657 575.001L577.959 559.262L593.699 543.565L609.395 559.304ZM653.234 541.021L637.777 556.545L593.986 512.941L549.833 556.906L534.375 541.384L578.463 497.484L578.393 497.415L593.849 481.892L653.234 541.021ZM578.101 466.579L562.578 482.035L562.508 481.966L518.609 526.053L503.086 510.597L547.052 466.442L503.448 422.651L518.971 407.194L578.101 466.579ZM684.087 422.471L640.483 466.262L684.449 510.416L668.925 525.872L625.026 481.785L624.957 481.854L609.434 466.398L668.564 407.014L684.087 422.471ZM516.433 466.311L500.905 482.216L485 466.688L500.527 450.783L516.433 466.311ZM702 465.949L686.471 481.854L670.566 466.327L686.093 450.421L702 465.949ZM653.234 392.875L609.146 436.774L609.216 436.844L593.759 452.367L534.375 393.237L549.832 377.714L593.624 421.318L637.777 377.353L653.234 392.875ZM609.579 373.527L594.05 389.434L578.145 373.905L593.672 358L609.579 373.527Z" fill="#121212"/>
<path d="M5.99951 422H512.5M674.5 422H1182.5" stroke="black" stroke-width="8"/>
</svg>
