<svg width="487" height="809" viewBox="0 0 487 809" fill="none" xmlns="http://www.w3.org/2000/svg">
<path d="M281.797 91.4676C264.19 86.6189 252.827 102.62 249.346 111.227L264.764 120.327C266.641 115.038 271.974 104.859 278.284 106.451L321.77 132.118C322.029 135.292 321.269 143.443 316.157 150.66L329.993 158.827C343.781 140.525 335.234 124.962 329.237 119.468L281.797 91.4676Z" fill="#868686"/>
<path d="M447.216 278.122C374.079 245.794 199.817 158.113 87.8606 66.0202L77.1272 84.2054C144.972 132.423 311.827 242.348 436.483 296.307L447.216 278.122Z" fill="#D9D9D9"/>
<path d="M447.216 278.122L382.572 189.861L329.993 158.827L316.157 150.66L264.764 120.327L249.346 111.227L197.162 80.4263L87.8606 66.0202C199.817 158.113 374.079 245.794 447.216 278.122Z" fill="#868686"/>
<path d="M197.162 80.4263L87.8606 66.0202M197.162 80.4263C198.085 80.9707 219.856 93.8207 249.346 111.227M197.162 80.4263L249.346 111.227M382.572 189.861L447.216 278.122M382.572 189.861C367.799 181.141 349.408 170.286 329.993 158.827M382.572 189.861L329.993 158.827M447.216 278.122C374.079 245.794 199.817 158.113 87.8606 66.0202M447.216 278.122L436.483 296.307C311.827 242.348 144.972 132.423 77.1272 84.2054L87.8606 66.0202M249.346 111.227C252.827 102.62 264.19 86.6189 281.797 91.4676L329.237 119.468C335.234 124.962 343.781 140.525 329.993 158.827M249.346 111.227C254.289 114.144 259.449 117.19 264.764 120.327M249.346 111.227L264.764 120.327M329.993 158.827C325.427 156.132 320.803 153.403 316.157 150.66M329.993 158.827L316.157 150.66M264.764 120.327C266.641 115.038 271.974 104.859 278.284 106.451L321.77 132.118C322.029 135.292 321.269 143.443 316.157 150.66M264.764 120.327C281.033 129.929 298.755 140.39 316.157 150.66M264.764 120.327L316.157 150.66M370.647 195.615L410.178 251.464M338.23 176.482L362.739 223.464M306.603 157.815L315.571 200.422M263.117 132.148L219.901 143.954M229.909 112.548L177.329 114.029M198.678 94.1143L130.284 86.2625" stroke="black" stroke-width="5"/>
<path fill-rule="evenodd" clip-rule="evenodd" d="M24.0783 703.073C95.4117 746.073 275.578 806.273 425.578 703.073L435.254 453.073L439.143 352.573L441.078 302.573H12.0783L16.5877 453.073L24.0783 703.073ZM46.5782 697.573L37.4781 323.573C46.5782 308.582 67.4781 311.582 75.0782 323.573V697.573C63.0782 707.973 51.0782 701.906 46.5782 697.573ZM124.578 718.073L117.978 335.573C132.978 307.082 158.078 329.573 158.078 335.573V718.073C142.478 740.873 129.245 727.573 124.578 718.073ZM208.578 731.573L203.578 335.573C223.578 312.773 239.578 326.073 245.078 335.573V731.573C224.278 750.773 212.078 739.573 208.578 731.573ZM290.578 725.073V335.573C300.478 307.082 328.978 317.073 334.578 330.573L324.078 725.073C308.478 730.673 295.245 727.406 290.578 725.073ZM378.078 703.073V323.573C388.478 302.573 413.978 310.582 413.978 323.573L404.078 697.573C390.878 708.773 381.245 705.906 378.078 703.073Z" fill="#868686"/>
<path d="M430.578 731.573C273.978 823.082 96.4781 772.082 24.0783 731.573V754.573C84.745 792.239 249.978 847.482 425.578 757.082C425.686 757.415 429.381 754.582 430.578 731.573Z" fill="#868686"/>
<path d="M425.578 703.073C275.578 806.273 95.4117 746.073 24.0783 703.073C21.0784 707.239 16.8784 722.373 24.0783 731.573C96.4781 772.082 273.978 823.082 430.578 731.573C431.151 720.573 430.952 699.473 425.578 703.073Z" fill="#868686"/>
<path d="M12.0783 302.573H441.078C453.478 284.573 434.978 266.582 432.478 273.082C398.203 271.082 149.378 270.072 14.4781 270.072C-5.12207 282.572 3.24502 294.906 12.0783 302.573Z" fill="#868686"/>
<path d="M378.078 323.573V703.073C381.245 705.906 390.878 708.773 404.078 697.573L413.978 323.573C413.978 310.582 388.478 302.573 378.078 323.573Z" fill="#C0C0C0"/>
<path d="M290.578 335.573V725.073C295.245 727.406 308.478 730.673 324.078 725.073L334.578 330.573C328.978 317.073 300.478 307.082 290.578 335.573Z" fill="#C0C0C0"/>
<path d="M203.578 335.573L208.578 731.573C212.078 739.573 224.278 750.773 245.078 731.573V335.573C239.578 326.073 223.578 312.773 203.578 335.573Z" fill="#C0C0C0"/>
<path d="M117.978 335.573L124.578 718.073C129.245 727.573 142.478 740.873 158.078 718.073V335.573C158.078 329.573 132.978 307.082 117.978 335.573Z" fill="#C0C0C0"/>
<path d="M37.4781 323.573L46.5782 697.573C51.0782 701.906 63.0782 707.973 75.0782 697.573V323.573C67.4781 311.582 46.5782 308.582 37.4781 323.573Z" fill="#C0C0C0"/>
<path d="M12.0783 302.573H441.078M12.0783 302.573L16.5877 453.073L24.0783 703.073M12.0783 302.573C3.24502 294.906 -5.12207 282.572 14.4781 270.072C149.378 270.072 398.203 271.082 432.478 273.082C434.978 266.582 453.478 284.573 441.078 302.573M24.0783 703.073C95.4117 746.073 275.578 806.273 425.578 703.073M24.0783 703.073C21.0784 707.239 16.8784 722.373 24.0783 731.573M425.578 703.073L435.254 453.073L439.143 352.573L441.078 302.573M425.578 703.073C430.952 699.473 431.151 720.573 430.578 731.573M24.0783 731.573C96.4781 772.082 273.978 823.082 430.578 731.573M24.0783 731.573V754.573C84.745 792.239 249.978 847.482 425.578 757.082C425.686 757.415 429.381 754.582 430.578 731.573M37.4781 323.573L46.5782 697.573C51.0782 701.906 63.0782 707.973 75.0782 697.573V323.573C67.4781 311.582 46.5782 308.582 37.4781 323.573ZM117.978 335.573L124.578 718.073C129.245 727.573 142.478 740.873 158.078 718.073V335.573C158.078 329.573 132.978 307.082 117.978 335.573ZM203.578 335.573L208.578 731.573C212.078 739.573 224.278 750.773 245.078 731.573V335.573C239.578 326.073 223.578 312.773 203.578 335.573ZM290.578 335.573V725.073C295.245 727.406 308.478 730.673 324.078 725.073L334.578 330.573C328.978 317.073 300.478 307.082 290.578 335.573ZM378.078 323.573V703.073C381.245 705.906 390.878 708.773 404.078 697.573L413.978 323.573C413.978 310.582 388.478 302.573 378.078 323.573Z" stroke="black" stroke-width="5"/>
</svg>
