<svg width="732" height="301" viewBox="0 0 732 301" fill="none" xmlns="http://www.w3.org/2000/svg">
<path fill-rule="evenodd" clip-rule="evenodd" d="M730.219 287.926C737.522 235.198 697.919 120.326 646.719 83.9257C602.036 52.1586 461.838 23.4138 369.86 9.73876C330.344 1.61166 300.091 -2.31955 289.219 1.42569C201.222 7.45651 9.82628 160.201 5.71889 168.427C-7.27882 194.457 0.720261 269.457 41.7189 287.926C41.7189 287.926 252.835 299.013 388.221 298.957C417.223 298.944 449.628 299.267 482.617 299.596C601.632 300.782 728.264 302.043 730.219 287.926ZM289.219 1.42569C259.386 8.10264 200.221 40.6565 202.221 117.457C204.386 200.596 482.414 159.519 562.072 159.519C574.5 159.519 572.5 159.519 582.721 157.457C592.372 155.509 665.717 105.395 646.719 83.9257C582.721 44 454.5 24.3472 369.86 9.73876C299.5 -3.5 299.347 0.731598 289.219 1.42569Z" fill="#8A97C4"/>
<path d="M289.219 1.42569C259.386 8.10264 200.221 40.6565 202.221 117.457C204.386 200.596 482.414 159.519 562.072 159.519C574.5 159.519 572.5 159.519 582.721 157.457C592.372 155.509 665.717 105.395 646.719 83.9257C582.721 44 454.5 24.3472 369.86 9.73876C299.5 -3.5 299.347 0.731598 289.219 1.42569Z" fill="#A5D2F0"/>
<path d="M264.501 124.505C251.001 106.001 259.5 84.0001 288.001 89.5048C396 143.005 412 120.5 437.501 143.005C445.089 149.701 404.5 150.5 346.001 143.005C298.384 136.904 275.5 136 264.501 124.505Z" fill="#C6ECFF"/>
</svg>
